<svg width="32" height="32" fill="none" xmlns="http://www.w3.org/2000/svg"><g clip-path="url(#clip0_80_288)"><path d="M27.45 24.361c.095-.068.095-.083.007-.349a1.6 1.6 0 00-.188-.395c-.083-.103-.086-.136-.023-.257.04-.076.096-.142.126-.146.03-.003.1-.01.156-.013.123-.008.184-.2.108-.342-.04-.073-.036-.126.01-.182.067-.08.066-.088-.112-.464-.053-.112-.055-.165-.007-.222.049-.059.044-.091-.019-.143a.286.286 0 01-.081-.196c0-.07-.019-.128-.041-.128-.047 0-.202.226-.189.275.005.018-.051.065-.124.104a.364.364 0 00-.165.196c-.018.07-.052.125-.076.125s-.08.035-.122.078c-.113.113-.281.046-.39-.155-.067-.125-.135-.178-.235-.182a7.875 7.875 0 01-.345-.026c-.112-.011-.216-.001-.23.022-.037.06-.233.011-.388-.099-.192-.136-.24-.164-.363-.207-.102-.036-.1-.04.019-.072l.126-.033-.14-.15c-.076-.083-.14-.174-.14-.202 0-.029-.024-.052-.055-.052s-.122-.061-.203-.137c-.136-.128-.171-.135-.55-.11-.579.041-.646.053-.647.113 0 .03-.085.108-.188.175-.214.139-.236.227-.08.324.12.076.146.33.044.432-.035.035-.066.227-.07.428-.004.322-.022.384-.155.525l-.15.16-.238-.086c-.195-.07-.255-.073-.332-.016-.077.056-.121.055-.24-.007-.132-.068-.166-.064-.339.037-.105.063-.206.17-.223.237-.022.088-.083.134-.208.158a.566.566 0 00-.272.138c-.052.058-.12.09-.15.072-.03-.02-.195-.03-.366-.023-.258.009-.328-.01-.42-.107-.07-.076-.148-.107-.22-.088-.075.02-.13-.005-.167-.074-.069-.129-.45-.141-.678-.022a.717.717 0 01-.254.08c-.113 0-.412-.296-.412-.408 0-.08-.267-.238-.402-.238-.133 0-.482-.206-.523-.31-.03-.076-.038-.07-.041.033a.598.598 0 01-.139.287c-.14.167-.177.412-.076.512.041.041.018.098-.082.197-.114.114-.173.134-.314.107a.723.723 0 01-.24-.084c-.035-.028-.086-.037-.113-.02-.056.034-.192-.107-.244-.254-.026-.072-.08-.093-.21-.08-.097.009-.2-.013-.23-.048-.04-.05-.123-.039-.35.048-.163.062-.365.11-.45.106-.11-.004-.145.016-.124.07.032.083-.052.126-.337.17-.107.017-.21.041-.23.054-.021.012-.094-.037-.162-.11a.52.52 0 00-.312-.149c-.159-.014-.194-.043-.236-.192-.028-.096-.083-.175-.123-.175-.046 0-.073-.062-.073-.163 0-.132-.035-.179-.19-.252-.134-.065-.205-.074-.247-.033-.09.092-.26.018-.348-.152-.085-.163-.24-.21-.24-.074a.08.08 0 01-.08.081c-.063 0-.08-.074-.08-.34 0-.188-.039-.469-.085-.625-.047-.157-.074-.296-.06-.31.014-.014-.033-.087-.104-.164-.16-.172-.16-.208-.008-.258.106-.033.094-.044-.091-.08-.153-.03-.233-.021-.286.032-.074.073-.279.07-.463-.007-.077-.032-.083-.05-.027-.085.056-.035.049-.062-.036-.126a.412.412 0 00-.173-.083c-.036 0-.052-.038-.034-.082.022-.06-.007-.081-.11-.081-.134 0-.188-.096-.101-.183.021-.021.044-.122.05-.224.01-.152-.007-.186-.092-.186a.362.362 0 01-.21-.105c-.084-.084-.137-.095-.268-.058-.177.051-.66-.035-1.217-.216a2.482 2.482 0 00-.4-.106c-.042 0-.12-.039-.171-.086-.053-.047-.118-.072-.146-.055-.083.052-.113.323-.046.41.054.07.05.072-.029.01-.143-.113-.342-.06-.327.085.015.137-.13.168-.25.054-.057-.055-.064-.028-.04.148.065.471.064.481-.03.5-.05.01-.144-.042-.208-.115-.064-.074-.146-.123-.182-.11-.086.034-.176-.078-.2-.248-.011-.082-.06-.142-.126-.154a.34.34 0 01-.18-.126c-.042-.058-.109-.091-.153-.074a.43.43 0 01-.21-.002c-.1-.025-.13-.07-.13-.186 0-.186-.082-.249-.157-.12-.042.073-.051.034-.038-.162.015-.21 0-.268-.084-.312-.056-.03-.099-.084-.094-.12.02-.158-.011-.205-.126-.189-.09.013-.126-.013-.138-.102-.015-.106-.04-.116-.23-.09-.124.018-.211.008-.211-.024 0-.03-.103-.048-.23-.042-.187.01-.231.033-.245.125-.01.063-.053.128-.096.145-.088.033-.157-.089-.114-.202.053-.136-.04-.191-.269-.16-.174.023-.23.057-.254.151-.031.125-.247.228-.247.118 0-.033-.039-.006-.086.061-.065.093-.07.14-.024.197.048.057.04.086-.035.128-.092.052-.09.062.028.173.086.08.116.154.095.232a.95.95 0 00-.031.183c0 .037-.038.067-.082.067-.097 0-.108.192-.014.25.15.093-.209.105-.424.014-.195-.082-.241-.084-.368-.018a.592.592 0 01-.181.07c-.172-.024-.226.017-.215.163a.39.39 0 01-.057.24c-.056.068-.05.091.036.137.057.031.12.04.138.022.019-.019.034-.006.034.029 0 .037-.086.063-.211.063-.229 0-.215-.023-.305.498-.026.153-.06.202-.14.202-.224 0-.314-.099-.314-.349 0-.13-.026-.253-.057-.273-.032-.019-.053-.1-.048-.178.024-.373-.002-.466-.157-.553-.126-.072-.158-.133-.183-.349-.016-.143-.056-.27-.09-.281-.08-.027-.22-.302-.22-.436a.251.251 0 00-.101-.179c-.087-.06-.107-.167-.135-.733L0 16.777l.13.14c.115.124.144.132.242.07.09-.056.134-.056.22-.002.097.06.108.054.108-.065 0-.072.024-.147.054-.165.03-.018.054-.014.054.01 0 .044.253.178.334.178.081 0 .043-.156-.051-.209-.084-.047-.085-.057-.01-.085.106-.041.373.056.373.135 0 .079.23.006.286-.09a.159.159 0 01.121-.074c.043 0 .078-.021.078-.047 0-.027.049-.06.108-.076.133-.035.147-.313.027-.542a.47.47 0 01-.049-.278c.026-.104.005-.13-.129-.159-.137-.03-.157-.057-.147-.196a.475.475 0 01.129-.269c.138-.128.14-.152.031-.307-.079-.113-.076-.123.053-.172a.299.299 0 00.173-.197c.03-.123.004-.175-.166-.33l-.201-.186.15-.156c.177-.185.215-.192.253-.048.02.079.073.107.198.107.11 0 .157-.02.133-.06-.052-.083.082-.482.21-.626a.595.595 0 01.206-.152c.103-.032.14-.262.05-.317-.027-.017-.037-.076-.022-.132.015-.056 0-.118-.032-.138-.088-.054-.07-.191.023-.191.045 0 .11-.06.144-.135.034-.074.094-.135.133-.135.04 0 .072-.023.072-.052 0-.028.053-.08.116-.114.1-.053.111-.049.083.025-.045.117.047.112.135-.007.039-.052.187-.149.33-.216.28-.132.413-.108.523.096.096.18.164.123.127-.109-.024-.15-.015-.215.03-.215.035 0 .047-.027.027-.06-.024-.039-.002-.049.064-.028.214.068.692.141.913.141.231 0 .433-.12.37-.22-.057-.093.035-.258.154-.276.066-.01.113-.048.106-.084-.008-.036.035-.066.094-.066.066 0 .108-.036.108-.094 0-.091.217-.23.36-.23.037 0 .11-.066.163-.148.13-.204.235-.279.393-.282.188-.003.25-.056.292-.25.03-.142.067-.173.23-.2a.404.404 0 01.34.073c.08.057.159.092.173.077.015-.014.06.012.099.06.046.056.052.099.016.122-.072.048-.13.28-.07.28.026 0 .077.053.112.12.08.149.066 1.274-.017 1.373-.031.038-.147.096-.258.129-.166.05-.225.045-.333-.026-.197-.13-.372-.675-.37-1.155 0-.154-.091-.107-.173.089-.077.185-.08.2-.088.355a.173.173 0 01-.128.167c-.209.064-.364.246-.364.428 0 .092-.03.197-.065.233-.042.042-.045.064-.006.064.032 0 .071.049.086.108.032.12.17.144.238.04a.452.452 0 00.043-.2c0-.084.035-.14.093-.152.074-.015.091.018.086.164-.014.366.24.547.345.246.056-.161.058-.162.357-.125.182.023.327.073.366.127.037.05.044.097.015.107-.084.03.004.116.12.116.129 0 .243-.103.27-.246.011-.058.072-.111.14-.12a.426.426 0 00.222-.15c.066-.083.136-.119.19-.098.101.039.105.073.032.266-.042.11-.072.13-.124.087-.122-.1-.294-.013-.32.163-.03.211.09.335.278.288.337-.084.774-.046.908.08.067.062.129.084.148.053.018-.03.084-.053.146-.053.109 0 .11.003.016.107-.08.09-.085.12-.026.192a.185.185 0 00.189.056.205.205 0 01.205.067c.054.06.15.092.255.085.15-.01.163 0 .135.114-.027.107-.013.124.092.113.178-.02.254-.079.254-.2 0-.193.15-.176.348.04.189.205.28.378.227.431-.015.015.02.075.078.133a.616.616 0 01.137.265c.017.088.062.16.1.16.11 0 .199-.149.16-.27a.224.224 0 01.03-.191c.045-.055.047-.078.004-.078-.095 0-.07-.159.047-.309a.521.521 0 00.108-.264c0-.09.03-.128.105-.128.058 0 .22-.109.362-.242.141-.134.262-.243.269-.243.006 0 .074.024.15.053.186.07.18.252-.019.488-.114.136-.15.225-.13.326a.25.25 0 01-.058.225c-.047.047-.086.107-.086.134 0 .026-.05.149-.109.272-.069.143-.096.276-.075.36.024.098.009.144-.056.17-.05.018-.076.068-.06.11.017.046-.023.094-.105.126-.074.028-.134.074-.134.102 0 .028-.078.09-.174.138-.162.081-.18.08-.243-.006-.037-.052-.068-.074-.068-.05 0 .024-.036.014-.08-.023-.05-.04-.082-.045-.082-.011 0 .137.08.236.25.306.163.069.205.066.424-.03.316-.141.536-.349.55-.52.014-.182.072-.233.22-.195.137.036.218.265.126.357-.075.075-.08.309-.007.309.03 0 .105.05.167.113l.113.113-.04-.127a.434.434 0 00-.126-.189c-.078-.057-.077-.072.008-.166a.388.388 0 00.094-.22c0-.14-.203-.386-.32-.387a.346.346 0 01-.154-.045c-.087-.055-.004-.301.16-.477.08-.084.105-.17.09-.301-.022-.183.05-.308.177-.308.036 0 .115-.043.177-.095.11-.091.11-.091.028.014a.627.627 0 00-.098.282c-.012.143.011.186.124.238.076.035.139.083.139.108 0 .025.036.046.08.046.1 0 .045-.162-.09-.26-.118-.085-.129-.225-.017-.225.044 0 .08.024.08.053 0 .03.04.054.088.054.06 0 .078-.033.06-.104-.02-.076-.001-.102.07-.096.055.004.087.026.072.05-.014.023.011.043.057.043s.098.06.117.135a.23.23 0 00.163.167c.156.04.166.106.02.144-.073.02-.107.074-.107.171 0 .09.021.13.059.107.035-.022.03.015-.011.09-.04.071-.063.153-.054.182.02.065.05.2.055.256.007.06.166.05.166-.01 0-.028-.023-.065-.052-.083-.033-.02-.033-.08 0-.168a.99.99 0 00.052-.298.69.69 0 01.06-.272c.042-.08.042-.126 0-.168a.224.224 0 01-.06-.137c0-.043-.036-.104-.08-.137-.058-.043-.071-.116-.047-.258l.032-.198.37.01c.262.006.372.029.372.078 0 .05.027.055.1.015.077-.04.098-.106.09-.268-.009-.145.012-.225.064-.244.042-.016.063-.051.046-.078-.043-.07.305-.222.505-.222.1 0 .18-.033.2-.08.034-.09.18-.112.18-.028 0 .03.044.054.097.054.12 0 .387-.12.388-.175 0-.022.057-.04.126-.04.107 0 .122-.023.102-.155-.029-.196.231-.473.351-.373.06.049.06.069.003.105-.056.037-.054.056.011.099a.333.333 0 00.148.053c.037 0 .067.05.067.11 0 .125.098.143.143.026.048-.125.286-.096.491.06.143.11.169.154.113.19-.06.04-.055.062.021.12.136.104.119.178-.093.402-.104.109-.189.223-.19.254 0 .03-.109.171-.242.312-.133.142-.242.286-.24.322 0 .036.032.023.073-.03a.262.262 0 01.183-.094.158.158 0 00.147-.112c.02-.066.066-.1.11-.083.04.016.11-.007.153-.05.102-.102.281-.1.32.002.018.045.058.081.09.081.033 0 .046-.021.03-.048-.044-.07.212-.221.375-.221.078 0 .177.036.222.08.104.105.358.104.561-.001.137-.07.152-.099.103-.19-.08-.148-.022-.215.155-.18.099.02.173.002.22-.054.063-.077.085-.074.229.028.091.066.147.145.13.188-.016.043.005.075.05.075.091 0 .106.085.025.135-.079.049-.003.147.087.113.049-.02.075.008.075.078 0 .067.057.13.148.168.21.086.368.08.345-.013a2.471 2.471 0 01-.038-.253c-.015-.149-.004-.169.068-.129.123.07.286.012.286-.101 0-.124.1-.159.257-.088.155.069.306-.042.173-.128-.067-.043-.06-.057.037-.084.106-.029.112-.047.055-.175a.564.564 0 00-.111-.178c-.028-.02-.03-.08-.006-.135a.382.382 0 00.037-.131c-.003-.017.096-.084.22-.147.189-.096.23-.102.244-.036.021.097.115.107.123.013.003-.037.022-.007.043.067.058.209.138.16.157-.097.013-.19.04-.24.151-.283.199-.075.247-.063.21.051-.03.095-.014.099.195.052.125-.028.263-.037.307-.02.088.034.332-.167.332-.274 0-.037.063-.142.14-.233.116-.138.179-.166.371-.166.157 0 .242.026.263.08.067.175.486.042.463-.146-.019-.148.078-.322.204-.37a.407.407 0 00.194-.214c.044-.117.09-.157.157-.14.052.014.11.001.127-.028.019-.03.078-.042.133-.027a.172.172 0 00.162-.05c.09-.107-.031-.237-.22-.237-.213 0-.235-.128-.056-.32.084-.09.142-.165.129-.165-.014 0 .019-.077.072-.172.148-.263.357-.429.852-.678.089-.045.203-.117.253-.16.05-.043.114-.063.142-.046.029.018.067-.007.085-.054.02-.052.067-.073.12-.053.063.025.077.01.051-.056-.03-.078.004-.085.29-.06.258.024.325.014.325-.046 0-.045-.055-.076-.134-.076-.157 0-.167-.03-.051-.145.046-.046.072-.116.056-.155-.015-.041.023-.087.092-.108.065-.02.185-.084.266-.141.156-.11.15-.114.17.132a.17.17 0 00.06.108c.033.025.024.059-.026.091-.044.028-.066.064-.05.08.028.028.228.073.361.08.04.003.054.032.032.068-.026.042-.01.051.05.028.06-.022.09-.007.09.045 0 .044-.024.08-.053.08-.03 0-.05.017-.043.04.006.022-.061.115-.15.207-.128.135-.177.156-.251.109-.073-.046-.11-.035-.173.048a.457.457 0 00-.082.228c-.002.092-.034.122-.134.122-.072 0-.146-.025-.164-.054-.05-.08-.12-.066-.157.033-.042.109.121.242.248.204.067-.02.123.034.204.192.122.24.092.38-.106.486-.066.036-.092.088-.07.144.03.08.038.08.097-.001a.25.25 0 01.18-.088c.064 0 .116-.026.116-.058 0-.067.224-.01.276.07.02.034.047.031.07-.005.045-.074.423-.063.473.014.044.068-.16.302-.263.302-.089 0-.094.091-.007.12.04.013.07.17.078.415.008.216.04.471.072.567.032.097.067.224.079.284.012.06.045.197.075.304.051.186.047.196-.075.196-.16 0-.29.23-.303.536-.007.186-.02.207-.089.15-.07-.058-.077-.037-.05.162.022.167.012.23-.039.23-.116 0-.14.228-.04.368.051.07.153.24.227.377.135.25.324.367.324.201 0-.046.039-.084.087-.084.06 0 .078.033.06.103-.02.077.01.114.115.144a.595.595 0 00.188.03.386.386 0 01.148.02c.121.04.138.188.021.188-.044 0-.08.045-.08.1 0 .145.205.385.328.385.127 0 .195.144.11.23-.034.033-.061.15-.061.258 0 .145.034.223.13.294.122.092.125.107.055.304-.058.165-.059.207-.004.207.09 0 .304.494.304.7 0 .213-.14.215-.336.006a1.7 1.7 0 00-.376-.275c-.45-.234-1.282-1.003-1.282-1.183 0-.144-.113-.38-.181-.38-.034 0-.03-.025.009-.064.095-.096.083-.661-.016-.744a.246.246 0 01-.081-.165c0-.054-.026-.114-.057-.133-.04-.024-.04-.056 0-.103.04-.05.03-.14-.036-.32-.078-.21-.082-.27-.024-.362.078-.126.046-.189-.225-.433-.097-.088-.157-.196-.157-.283 0-.163-.077-.183-.18-.047-.1.132-.093.216.032.35.061.065.108.19.108.287 0 .094.015.246.033.336.026.133.015.162-.056.152-.048-.007-.125-.066-.17-.131-.096-.136-.184-.154-.184-.037 0 .044-.039.08-.086.08-.047 0-.099.05-.114.108-.016.06-.048.108-.072.108-.076 0-.119.323-.053.403.034.041.076.216.093.388.017.173.066.383.108.467.074.147.082.15.181.059.061-.055.104-.068.104-.032 0 .035-.06.116-.134.18-.075.065-.135.151-.135.192 0 .05-.036.064-.103.042-.057-.018-.118-.01-.135.018-.018.028-.08.039-.14.023-.074-.02-.107-.002-.107.06 0 .047-.018.083-.04.08-.16-.025-.235.022-.264.167-.033.165-.107.25-.308.352-.064.033-.112.101-.108.152.006.065-.011.077-.054.042-.042-.035-.126.007-.262.132-.302.277-.383.425-.344.633.019.099.016.198-.007.22-.022.022-.044.161-.05.309-.005.147-.035.3-.067.338-.032.038-.055.227-.052.42.002.194-.022.402-.055.463a.62.62 0 00-.06.247c0 .074-.024.15-.053.168-.03.019-.054.08-.054.138 0 .08.037.105.158.105.087 0 .174-.024.192-.054.018-.03.091.013.163.095.104.118.13.129.132.053.002-.114.11-.128.11-.013 0 .044.035.08.08.08a.08.08 0 00.08-.08c0-.045.037-.081.081-.081.093 0 .11-.138.025-.19-.105-.065.066-.199.215-.169.326.066.493.12.492.156-.001.022.084.126.19.232.121.12.18.223.16.276-.042.11.07.475.184.598.05.054.156.227.236.385.143.286.144.29.12 1.264-.026 1.033-.04 1.21-.108 1.32-.023.037-.028.124-.01.193.04.163-.151.599-.337.766-.119.107-.18.123-.37.097l-.228-.03-.035.218c-.028.174-.058.218-.146.218-.106 0-.107-.003-.013-.072zm2.595-2.68c-.081-.091-.135-.2-.118-.242.016-.042.007-.077-.02-.077-.054 0-.217-.305-.217-.408 0-.037-.082-.119-.182-.18a.724.724 0 01-.253-.288 2.353 2.353 0 00-.254-.417 2.485 2.485 0 01-.256-.418c-.049-.117-.11-.175-.184-.175-.11 0-.326-.174-.326-.263 0-.026-.036-.077-.08-.114a.232.232 0 01-.082-.15c0-.047-.041-.13-.092-.186-.071-.08-.077-.111-.024-.144.096-.06.019-.336-.103-.368-.056-.014-.084-.057-.067-.1.044-.117.122-.09.18.064.03.077.102.153.16.168.06.015.108.062.108.104 0 .042.043.092.094.11.165.059.234.135.18.2-.063.076.08.252.278.341.082.037.149.091.149.121s.026.055.059.055c.032 0 .208.131.39.291.183.16.417.328.52.373l.19.082-.259.004c-.313.006-.346.066-.227.417.12.353.286.611.395.613a.42.42 0 01.195.081c.058.044.145.067.193.052.117-.037.255.238.152.302-.037.023-.09.028-.116.011-.027-.016-.016-.05.024-.076.054-.034.055-.047.006-.047-.116-.002-.275.194-.224.275.133.21.001.203-.19-.01zm-.243-.18c-.002-.056.01-.088.028-.07.018.017.02.064.005.103-.018.043-.03.03-.033-.033zm1.505-.23c0-.153.026-.23.086-.254.075-.029.082-.004.05.17-.054.296-.137.347-.137.084zm.199-.374c-.076-.076-.041-.546.043-.578a.133.133 0 00.08-.114c0-.045.025-.082.055-.082.073 0 .067.06-.027.287-.044.105-.066.228-.05.272.037.094-.046.27-.101.215zm.29-1.08c-.003-.096.02-.188.05-.206.064-.04.064.119 0 .27-.04.09-.048.08-.05-.065zm.166-.826c0-.074.012-.104.027-.067a.209.209 0 010 .134c-.015.038-.027.007-.027-.067zm-5.37-.27c-.019-.029-.008-.053.023-.053.032 0 .057.024.057.054s-.01.054-.023.054-.04-.025-.057-.054zm5.17-.703c-.049-.08-.01-.108.077-.055.047.03.052.057.016.08a.067.067 0 01-.092-.024zm-.078-.374a.054.054 0 11.054.054.054.054 0 01-.054-.054zm-.059-.296a.374.374 0 010-.097.322.322 0 00-.046-.14c-.035-.066-.032-.117.01-.16.078-.077.167-.081.12-.005-.019.03-.01.085.02.121.036.045.03.108-.02.2-.042.074-.08.11-.084.08zm-3.498-2.152c0-.014.024-.04.054-.058.03-.018.054-.007.054.024s-.024.057-.054.057-.054-.01-.054-.024zM11.531 12.74c0-.09.024-.162.054-.162s.054.073.054.162c0 .088-.025.161-.054.161-.03 0-.054-.073-.054-.161zm7.467-.21c-.017-.027.006-.063.05-.08.044-.017.08-.008.08.019 0 .073-.095.118-.13.061zm-5.304-.216c-.054-.034-.057-.056-.01-.085.074-.046.13-.005.102.074-.011.033-.05.037-.092.01zm-2.394-.163c-.116-.138-.136-.194-.088-.252.08-.097.017-.345-.088-.345-.064 0-.07-.023-.027-.103.035-.065.093-.093.156-.076.062.016.16-.028.251-.113.173-.16.235-.17.38-.06.1.075.096.086-.13.29-.214.19-.24.24-.27.524l-.034.314-.15-.179zm-1.35-.04c-.062-.063-.04-.12.073-.18.086-.046.115-.04.142.03.045.117-.127.238-.215.15zm12.56-.678c-.062-.17.088-.253.305-.17.122.047.106.103-.052.175-.175.08-.222.078-.253-.005zm-10.494-.256c-.04-.073-.04-.108-.002-.108.03 0 .05-.03.042-.067-.007-.038.028-.06.081-.052.052.009.094-.006.094-.034 0-.027.073-.08.162-.116.089-.037.162-.083.162-.103 0-.02.062-.04.139-.047a.674.674 0 00.226-.06c.052-.03.139-.03.216 0 .07.027.152.034.18.017.028-.018.087-.003.131.034.053.043.18.055.378.035.234-.024.305-.014.329.049.017.043.015.095-.004.114-.052.052-.562.108-.625.068-.031-.018-.183-.013-.338.013a8.642 8.642 0 01-.435.063c-.085.008-.17.037-.189.064-.02.027-.096.056-.17.063-.074.008-.162.05-.195.095-.079.106-.113.1-.182-.028zm10.292.084c0-.013.024-.039.054-.057.03-.018.054-.008.054.024a.056.056 0 01-.054.057c-.03 0-.054-.011-.054-.024zM1.47 11.167a.709.709 0 01-.087-.164c-.02-.056-.09-.095-.167-.095-.073 0-.149-.025-.168-.056-.023-.036.014-.043.105-.02.114.028.139.015.139-.074 0-.194.264-.192.268.002 0 .023.039.04.085.04.064 0 .08.048.068.202-.018.212-.14.296-.243.165zm20.366-.066c-.131-.06-.243-.31-.195-.437.037-.094.096-.1.243-.02.128.068.201.021.11-.07-.103-.103-.077-.123.174-.134.241-.011.399.084.329.197-.055.088-.233.065-.299-.038-.04-.064-.052-.069-.038-.014.011.045.074.108.14.14l.119.06-.15.101c-.083.055-.172.094-.198.086-.026-.008-.033.021-.017.065.04.102-.067.134-.218.064zm-4.329-.333a.985.985 0 00.112-.276c0-.038.024-.069.054-.069s.054.025.054.054c0 .03.025.054.057.054.094 0 .225.159.195.236-.015.04-.096.087-.18.106a5.81 5.81 0 00-.279.068l-.125.036.112-.209zm-.44-.214c-.185-.1-.199-.305-.029-.424.153-.107.224-.107.183 0-.025.064-.008.077.07.052.123-.039.191.05.136.177a.42.42 0 00-.029.186c.015.116-.127.12-.332.01zm5.544-.172c-.03-.05.077-.144.18-.157.045-.006.142-.028.216-.05.13-.04.132-.037.051.085-.081.122-.395.208-.447.122zm-5.872-.21c-.066-.065-.038-.123.045-.091.044.017.08.052.08.079 0 .056-.074.063-.125.012zm.106-.206c-.043-.111.052-.297.151-.297.041 0 .086-.03.099-.067.032-.09.077-.043.116.121.04.17-.013.251-.192.296-.103.026-.15.012-.174-.053zm9.503-.264c0-.012.037-.035.08-.052.045-.017.082-.008.082.02 0 .03-.037.053-.081.053-.044 0-.08-.01-.08-.021zm-12.046-.738a.09.09 0 01.01-.106c.064-.063.205.03.158.105-.047.076-.121.076-.168 0zm.3.005c0-.03.05-.054.11-.054.061 0 .096.024.078.054-.018.03-.068.053-.111.053s-.078-.024-.078-.053zm-.458-.377c-.02-.03.002-.04.05-.021.094.036.11.074.033.074-.028 0-.065-.024-.083-.053zm-.647-.216c-.166-.042-.136-.06.117-.07.08-.003.155.024.166.06.024.07-.038.072-.283.01zm-.1-.198a.128.128 0 01-.035-.076c0-.051.208.003.246.065.034.055-.156.065-.21.011zm13.23-.207c-.09-.197-.079-.284.044-.35.12-.063.123-.055.11.216-.014.25-.076.304-.154.134z" fill="#303944"/></g><defs><clipPath id="clip0_80_288"><path fill="#fff" transform="translate(0 7)" d="M0 0h32v17.433H0z"/></clipPath></defs></svg>