<svg width="32" height="32" fill="none" xmlns="http://www.w3.org/2000/svg"><path d="M16 2.667C8.648 2.667 2.667 8.646 2.667 16c0 7.352 5.981 13.333 13.333 13.333S29.333 23.352 29.333 16 23.352 2.666 16 2.666zm0 2c.452 0 .895.033 1.333.084v.582c0 .368.299.667.667.667h.667a.667.667 0 00.666-.667v-.168a11.31 11.31 0 015.334 3.531v3.567c0 .263.078.52.224.74l.938 1.407c.112.167.171.364.171.565v.008c0 .562.455 1.017 1.017 1.017h.316c0 5.708-4.2 10.402-9.682 11.2l3.668-2.983c.23-.188.436-.406.61-.648l1.826-2.559c.159-.222.238-.491.223-.764l-.022-.418a1.204 1.204 0 00-.31-.745l-.62-.686a1.205 1.205 0 00-.895-.397h-.286c-.327 0-.64-.133-.867-.369l-1.223-1.263a1.212 1.212 0 00-.867-.368h-1.056c-.32 0-.626.126-.853.353l-.627.627a1.209 1.209 0 00-.352.852v.09c0 .456-.258.874-.667 1.078a1.205 1.205 0 00-.666 1.078v.753c0 .502.312.952.782 1.128l.63.238c.671.25.975 1.027.655 1.667l-1.71 3.42A11.312 11.312 0 014.668 16c0-3.773 1.84-7.1 4.666-9.158v.828a.797.797 0 01-.233.563l-.678.678A1.44 1.44 0 008 9.93v1.15c0 .168.024.335.073.497l.77 2.56c.101.34.324.632.627.819l3.672 2.26c.125.077.27.117.417.117h.313a.795.795 0 00.295-1.534l-2.335-.932a.795.795 0 01-.499-.738v-.667c0-.44.357-.796.796-.796h2.047a.792.792 0 00.71-.438l.967-1.934a.791.791 0 01.46-.398l1.144-.382A.794.794 0 0018 8.76v-.342a.795.795 0 00-.345-.655l-4.108-2.824A11.39 11.39 0 0116 4.667zm-.667 8.666a.667.667 0 000 1.333h1.334a.667.667 0 000-1.333h-1.334z" fill="#303944"/></svg>