<svg width="16" height="16" fill="none" xmlns="http://www.w3.org/2000/svg"><path d="M7.639 2.208l.573 1.352c.25.589.111 1.282-.343 1.712l-1.07 1.016a.506.506 0 00-.157.445c.103.627.332 1.246.687 1.856a5.844 5.844 0 001.293 1.553.51.51 0 00.489.087l1.249-.417c.575-.191 1.2.029 1.553.547l.822 1.207a1.55 1.55 0 01-.172 1.944l-.546.547a2.013 2.013 0 01-2.034.519c-1.693-.528-3.249-2.096-4.669-4.703-1.422-2.61-1.924-4.826-1.505-6.645.176-.766.72-1.375 1.432-1.603l.718-.229c.673-.214 1.392.133 1.68.812z" fill="#7B8087"/></svg>