<svg width="25" height="25" fill="none" xmlns="http://www.w3.org/2000/svg"><path d="M1.314.982A1.333 1.333 0 000 2.333v21.334A1.334 1.334 0 001.333 25h21.334a1.333 1.333 0 100-2.667h-20v-20A1.333 1.333 0 001.314.982zm21.38 2.001a1.334 1.334 0 00-1.18.678l-3.57 6.12-1.823-2.836a1.334 1.334 0 00-2.289.08l-2.724 4.953-2.083-2.499a1.333 1.333 0 00-2.16.155l-2.667 4.333a1.333 1.333 0 102.27 1.399l1.695-2.753 2.146 2.574a1.333 1.333 0 002.192-.212l2.588-4.704 1.79 2.784a1.333 1.333 0 002.273-.05l4.667-8a1.334 1.334 0 00-1.125-2.022z" fill="#303944"/></svg>