<svg width="40" height="20" fill="none" xmlns="http://www.w3.org/2000/svg"><g clip-path="url(#clip0_197_1294)"><path d="M19.599 11.15h.628v1.405h.453l.813-1.406h.685l-.976 1.65v.011l1.035 1.802h-.71l-.837-1.51h-.453v1.509h-.627v-3.462h-.011zm4.044.917c.755 0 1.37.546 1.37 1.302 0 .767-.605 1.3-1.36 1.3-.754 0-1.359-.533-1.359-1.3-.012-.767.593-1.302 1.349-1.302zm1.857.058h.594v1.952h.778v-1.952h.592v1.952h.778v-1.952h.594v2.486h-3.313v-2.486H25.5zm5.091-.058c.707 0 1.103.522 1.103 1.173a1.83 1.83 0 01-.023.245h-1.709c.035.43.373.662.744.662.259-.011.508-.105.71-.268l.242.442a1.589 1.589 0 01-.999.36c-.824 0-1.336-.593-1.336-1.301 0-.778.523-1.313 1.267-1.313h.001zm1.392 2.021c.303-.046.524-.3.524-1.185v-.778h1.813v2.486h-.617v-1.985H33.1v.279c0 1.08-.29 1.707-1.117 1.73v-.547zm4.103-2.02c.709 0 1.103.521 1.103 1.174-.002.081-.01.162-.023.243h-1.708c.034.43.372.662.744.662.259-.012.507-.105.709-.268l.244.442a1.592 1.592 0 01-1 .36c-.825 0-1.337-.593-1.337-1.301 0-.778.524-1.313 1.268-1.313v.001zm1.615.057h.615v.953h.302l.605-.953h.685l-.79 1.185v.012L40 14.611h-.72l-.65-1.01h-.326v1.01h-.617v-2.486h.013zm-14.058 2.01c.406 0 .742-.313.742-.777a.75.75 0 00-.744-.78c-.405 0-.731.314-.731.778s.325.778.733.778v.002zm7.424-1.08c0-.325-.222-.523-.5-.523-.314 0-.546.209-.605.523h1.105zm5.495 0c0-.325-.22-.523-.5-.523-.313 0-.545.209-.604.523h1.105z" fill="#2D3540"/><path d="M28.278 3.609v5.867a.16.16 0 01-.047.116.159.159 0 01-.116.047h-1.197a.158.158 0 01-.162-.163V3.61a.157.157 0 01.1-.152.158.158 0 01.063-.01h1.196a.158.158 0 01.164.162h-.001zm9.34-.163c.047 0 .106.023.164.07.035.034.035.093.024.139l-1.977 5.88a.165.165 0 01-.15.104H34.61c-.07 0-.128-.035-.151-.104l-1.15-3.429-1.151 3.427a.166.166 0 01-.15.106h-1.072a.15.15 0 01-.15-.106L28.81 3.655a.16.16 0 01.023-.14c.025-.046.082-.069.128-.069h1.337c.07 0 .128.047.15.116l1.058 3.474 1.162-3.474a.165.165 0 01.15-.105h.942a.15.15 0 01.15.105l1.163 3.474 1.058-3.474a.16.16 0 01.15-.116h1.338zm2.022 0c.082 0 .151.07.164.163v5.867a.157.157 0 01-.047.117.157.157 0 01-.117.046h-1.196a.159.159 0 01-.163-.163V3.61a.159.159 0 01.163-.163h1.196zM26.06 9.43a.12.12 0 01-.095.198h-1.464a.187.187 0 01-.15-.071l-.244-.3a3.276 3.276 0 01-1.754.52 3.243 3.243 0 010-6.482 3.243 3.243 0 012.73 4.995l.975 1.14h.002zm-12.236 2.847c.303.116.419.569.442.766.046.36-.059.499-.175.499-.116 0-.278-.14-.453-.418-.175-.278-.244-.592-.15-.754.057-.105.186-.152.336-.093zm-1.766 1.313c.187 0 .395.082.581.243.36.303.464.65.279.906a.608.608 0 01-.477.209.824.824 0 01-.546-.197c-.325-.28-.417-.744-.209-.999a.45.45 0 01.372-.164v.002zm-4.066 3.357a7.992 7.992 0 117.994-7.994 8.044 8.044 0 01-1.128 4.102c-.023.034-.082.023-.093-.023-.278-1.964-1.475-3.044-3.218-3.37-.15-.023-.175-.116.023-.14.534-.046 1.29-.035 1.685.035a5.292 5.292 0 00-5.252-5.903A5.293 5.293 0 002.717 8.94a5.293 5.293 0 005.287 5.288h.243a7.132 7.132 0 01-.104-1.43c.014-.326.082-.372.221-.117.733 1.267 1.779 2.406 3.823 2.86 1.674.37 3.347.8 5.147 3.09.164.197-.082.406-.267.244-1.836-1.627-3.508-2.162-5.031-2.162-1.708.012-2.87.232-4.043.232l-.001.001zM23.154 8.13l-.639-.778c-.07-.082-.012-.21.093-.21h1.347c.07-.186.105-.396.105-.605 0-.963-.72-1.801-1.707-1.801-.988 0-1.71.838-1.71 1.801 0 .964.722 1.79 1.71 1.79.278.012.557-.069.8-.197z" fill="#FF8C00"/></g><defs><clipPath id="clip0_197_1294"><path fill="#fff" transform="translate(0 .912)" d="M0 0h40v18.176H0z"/></clipPath></defs></svg>