<svg width="148" height="28" viewBox="0 0 148 28" fill="none" xmlns="http://www.w3.org/2000/svg">
<path d="M27.4806 11.523C26.5969 11.1592 25.7131 10.8474 24.7774 10.5875C23.8417 10.3276 22.75 9.96381 22.9059 8.82041C23.0619 7.62503 24.1016 7.26122 25.2453 7.31319C27.8445 7.36517 30.4438 7.31319 33.0431 7.31319C33.8229 7.31319 34.6027 7.46911 35.1745 6.68952C36.6301 4.66258 38.4496 2.94747 40.3211 0.920525C35.0705 0.920525 29.872 0.712633 24.6214 0.972498C18.3832 1.28434 15.8359 3.62312 14.1204 9.8079C13.3406 12.6144 14.1724 14.5374 16.8236 15.7328C17.7074 16.1486 18.5911 16.4085 19.5269 16.6683C20.5146 16.9802 21.7622 17.1881 21.6063 18.5393C21.4503 19.9426 20.1507 20.0985 19.007 20.0985C15.368 20.0985 11.729 20.0985 8.09007 20.0985C2.37167 20.0985 2.37167 20.0985 0.812103 25.5557C0.760118 25.7116 0.656147 25.8675 0.604161 26.0234C0.292249 26.907 0.708132 27.0629 1.48791 27.0629C8.03808 26.855 14.6402 27.5826 21.1904 26.5951C26.233 25.8156 29.82 21.8136 30.4438 16.7203C30.7037 14.2776 29.716 12.5105 27.4806 11.523Z" fill="#303944"/>
<path d="M116.375 1.1287C113.36 0.920813 110.293 1.02476 107.278 0.86884C105.77 0.764894 105.199 1.44054 104.731 2.73986C102.547 9.02859 100.208 15.2653 97.9726 21.5021C97.3488 23.3211 96.361 25.0362 96.2051 27.1152C98.3885 27.1152 100.364 27.0112 102.339 27.1671C103.743 27.2711 104.367 26.5954 104.783 25.452C105.51 23.4251 106.29 21.4501 107.122 19.2673C108.214 19.9429 108.058 20.7745 108.214 21.3462C109.877 27.479 109.877 27.427 116.375 27.1671C117.831 27.1152 118.247 26.6474 117.831 25.3481C117.051 22.8534 116.427 20.3587 115.492 17.916C114.972 16.5127 114.816 15.7851 116.427 15.0574C118.767 14.018 120.534 12.1989 121.574 9.80818C123.653 4.92273 121.678 1.49251 116.375 1.1287ZM114.14 10.0161C113.1 12.147 111.229 12.8226 108.578 12.5108C109.149 10.9516 109.721 9.60029 110.085 8.19702C110.657 6.01416 112.217 6.11811 113.724 6.74178C115.544 7.4694 114.712 8.87267 114.14 10.0161Z" fill="#303944"/>
<path d="M91.6308 0.608838C89.2395 0.504892 86.6402 1.38843 84.3008 2.94762C79.0503 6.53375 76.2951 11.6791 75.0474 17.7079C73.8518 23.6328 76.9709 27.4269 82.9492 27.3749C86.7442 27.3229 90.1232 26.1275 92.7745 23.373C96.6214 19.423 99.0127 14.6415 99.6885 9.18437C100.416 3.67524 97.6611 0.660811 91.6308 0.608838ZM87.5759 20.0987C86.5882 21.2941 85.1326 21.8658 83.625 21.1381C82.0135 20.3585 82.3774 18.8513 82.7413 17.5C83.5211 14.2777 84.5608 11.2113 86.6402 8.56069C87.5239 7.41729 88.6156 6.6377 90.1232 6.6377C91.4748 6.6377 92.2026 7.31335 92.2026 9.02845C91.3189 12.7705 90.2792 16.7724 87.5759 20.0987Z" fill="#303944"/>
<path d="M50.4057 0.660544C47.5465 0.452652 44.8433 0.868436 42.4 2.32368C35.9018 6.27362 32.8866 12.3025 32.0029 18.4353C31.9509 24.4122 34.0823 26.8549 38.813 27.3227C42.14 27.6345 45.2592 27.0108 47.9104 24.9839C53.6288 20.6181 56.436 14.6413 56.9039 7.57294C57.1638 3.57103 54.4086 0.972382 50.4057 0.660544ZM49.0021 10.4834C48.2223 13.4979 47.1826 16.4083 45.5191 19.059C44.6873 20.3583 43.5956 21.2418 41.9841 21.3458C40.3206 21.3977 39.4368 20.5662 39.6447 19.007C40.1646 14.8492 41.5162 10.9512 44.4274 7.83281C45.5191 6.6894 46.9747 6.16967 48.4303 6.94927C49.8859 7.78083 49.314 9.28805 49.0021 10.4834Z" fill="#303944"/>
<path d="M69.2255 11.3154C68.7056 11.3154 68.1858 11.3154 67.6659 11.2634C66.9901 11.2114 66.7822 10.7956 66.9381 10.2239C67.406 8.61277 67.8219 7.05358 70.1612 7.31345C71.9807 7.52134 73.8002 7.36542 75.6197 7.36542C76.2955 7.36542 77.0753 7.57331 77.5951 6.94964C79.3107 4.7148 81.4941 2.99969 83.8854 1.12867C78.219 1.12867 72.9684 1.02472 67.7179 1.18064C64.2869 1.23261 61.7396 3.10364 60.4919 6.22201C57.7887 13.0305 55.3974 19.8909 52.7461 27.1151C53.6298 27.1151 54.0457 27.1151 54.4616 27.1151C60.7519 27.2191 60.7519 27.2191 62.9352 21.1902C64.5468 16.8245 64.5468 16.8245 69.3295 16.7725C70.4211 16.7725 71.5128 17.0324 72.0327 15.4732C73.8002 10.2239 73.8002 11.3673 69.2255 11.3154Z" fill="#303944"/>
<path d="M146.008 0.869141C138.158 0.869141 130.256 0.869141 121.99 0.869141C122.926 2.37636 124.122 3.36384 124.07 4.81908C123.966 7.05392 125.005 7.67759 126.981 7.31378C128.696 7.05392 128.8 7.78154 128.228 9.18481C126.565 13.6025 125.005 18.1242 123.342 22.5419C121.678 27.0635 121.678 26.9595 126.565 27.1155C128.384 27.1674 129.268 26.6997 129.892 24.8806C131.348 20.4629 133.063 16.1492 134.623 11.7315C136.234 7.31378 136.182 7.31378 140.809 7.31378C145.748 7.31378 145.748 7.31378 147.151 2.74017C147.151 2.63622 147.203 2.58425 147.255 2.4803C147.879 1.23295 147.255 0.869141 146.008 0.869141Z" fill="#303944"/>
</svg>
