<svg width="17" height="16" fill="none" xmlns="http://www.w3.org/2000/svg"><g clip-path="url(#clip0_440_5623)"><path d="M5.552 14.422c5.998 0 9.278-4.965 9.278-9.27 0-.141-.003-.282-.01-.421a6.629 6.629 0 001.627-1.688 6.507 6.507 0 01-1.873.513 3.27 3.27 0 001.434-1.802 6.542 6.542 0 01-2.07.791 3.258 3.258 0 00-2.38-1.03A3.26 3.26 0 008.38 5.517a9.261 9.261 0 01-6.722-3.404 3.255 3.255 0 001.01 4.35 3.238 3.238 0 01-1.477-.408v.042A3.26 3.26 0 003.808 9.29a3.267 3.267 0 01-1.473.056 3.264 3.264 0 003.046 2.263 6.545 6.545 0 01-4.05 1.395 6.62 6.62 0 01-.778-.045 9.235 9.235 0 004.999 1.463" fill="#fff"/></g><defs><clipPath id="clip0_440_5623"><path fill="#fff" transform="translate(.5 1.463)" d="M0 0h16v13.013H0z"/></clipPath></defs></svg>