<svg width="40" height="14" fill="none" xmlns="http://www.w3.org/2000/svg"><path d="M17.34 13.344h-3.264l2.04-12.68h3.265l-2.04 12.68zM11.33.664L8.22 9.385l-.368-1.878-1.098-5.701S6.62.664 5.205.664H.06L0 .88s1.573.33 3.414 1.45L6.25 13.343h3.4L14.844.664h-3.512zm25.673 12.68H40L37.387.664h-2.624c-1.211 0-1.506.945-1.506.945l-4.868 11.735h3.402l.68-1.884h4.15l.382 1.884zm-3.592-4.486l1.715-4.745.965 4.745h-2.68zm-4.767-5.145L29.11.99S27.672.438 26.174.438c-1.62 0-5.466.716-5.466 4.197 0 3.276 4.514 3.317 4.514 5.037 0 1.72-4.049 1.412-5.385.327l-.486 2.848s1.458.716 3.684.716c2.228 0 5.588-1.167 5.588-4.342 0-3.296-4.555-3.603-4.555-5.037 0-1.433 3.18-1.25 4.576-.47z" fill="#2566AF"/><path d="M7.851 7.507L6.753 1.805S6.62.663 5.205.663H.06L0 .878s2.473.518 4.844 2.46c2.268 1.856 3.007 4.17 3.007 4.17z" fill="#E6A540"/></svg>