<svg width="20" height="20" fill="none" xmlns="http://www.w3.org/2000/svg"><path d="M8.542 2.5h-5c-.575 0-1.042.467-1.042 1.042v5c0 .574.467 1.041 1.042 1.041h5c.574 0 1.041-.467 1.041-1.041v-5c0-.575-.467-1.042-1.041-1.042zm7.916 0h-5c-.574 0-1.041.467-1.041 1.042v5c0 .574.467 1.041 1.041 1.041h5c.575 0 1.042-.467 1.042-1.041v-5c0-.575-.468-1.042-1.042-1.042zm-7.916 7.917h-5c-.575 0-1.042.467-1.042 1.041v5c0 .575.467 1.042 1.042 1.042h5c.574 0 1.041-.468 1.041-1.042v-5c0-.574-.467-1.041-1.041-1.041zm7.916 0h-5c-.574 0-1.041.467-1.041 1.041v5c0 .575.467 1.042 1.041 1.042h5c.575 0 1.042-.468 1.042-1.042v-5c0-.574-.468-1.041-1.042-1.041z" fill="#3275CD"/></svg>