<svg width="106" height="28" viewBox="0 0 106 28" fill="none" xmlns="http://www.w3.org/2000/svg">
<path fill-rule="evenodd" clip-rule="evenodd" d="M22.0959 4.56218C23.3961 4.56218 24.6068 3.54263 24.8068 2.28779C25.0068 1.02773 24.1172 0.00817818 22.8171 0.00294971C21.5222 -0.00227877 20.3062 1.01727 20.1062 2.27734C19.9062 3.5374 20.7958 4.55695 22.0959 4.56218Z" fill="#303944"/>
<path fill-rule="evenodd" clip-rule="evenodd" d="M84.1929 12.9489C84.614 10.9202 86.2721 9.20006 88.1303 9.20006C89.1777 9.20006 89.9305 9.96865 89.6568 10.8313L83.9192 14.7527C83.9982 13.7331 84.1929 12.9489 84.1929 12.9489ZM57.5213 17.7225L58.432 12.5777C58.8373 11.3594 60.269 9.73337 61.7639 9.63925C62.3377 9.60265 63.0272 9.62357 63.6747 10.1412C64.2327 10.7686 64.5169 11.7097 64.5169 12.8652C64.5169 16.5252 62.7219 19.0767 60.1848 19.0767C58.9162 19.0767 57.9214 18.4283 57.5213 17.7225ZM105.996 5.85384C103.832 5.73881 101.011 8.36873 101.011 8.36873L100.111 6.12572H97.6525L96.4681 12.8182C96.3891 13.2783 96.1365 13.6913 95.768 13.9789L92.5097 16.5304C92.5097 16.5304 91.1727 17.5395 89.3304 18.7263C88.4935 19.1394 87.7986 19.3224 87.1038 19.3224C85.5984 19.3224 84.6719 18.7473 84.2298 17.7591C84.1614 17.5813 84.1035 17.3931 84.0561 17.1944L92.4202 11.579C93.6204 10.7425 93.6151 9.58697 93.4414 9.01184C92.9045 7.2237 91.278 5.87475 88.5935 5.87475C83.5771 5.87475 80.1346 10.1255 80.1346 16.1539C80.1346 16.5618 80.1609 16.9591 80.2135 17.346L77.8395 19.0035C77.3711 19.2858 76.7131 19.5368 76.2973 19.5368C75.5814 19.5368 75.2761 18.9878 75.4919 17.7904L78.6028 0.541707L74.6971 0.53125L73.1442 9.11641C73.0758 9.4824 72.9074 9.81702 72.6495 10.0889L68.3805 14.5592C68.4858 13.8168 68.5437 13.0378 68.5437 12.2169C68.5437 8.5831 66.8488 5.89567 64.001 5.89567C61.2533 5.89567 59.2005 8.20665 59.2005 8.20665L58.1214 6.1414H55.6895L54.3525 13.707C54.2946 14.0364 54.1472 14.3449 53.9314 14.6011L51.4522 17.5133C50.7626 18.2401 50.0362 19.1603 49.6783 19.1864C49.0256 19.2962 48.7466 19.0557 48.9624 17.8532L49.952 12.3737C50.7258 8.03411 49.394 5.84861 45.6515 5.84861C43.4144 5.84861 40.7877 8.34259 40.7877 8.34259C40.2298 6.71131 38.8665 5.84861 36.7925 5.84861C34.5291 5.84861 32.0656 8.4733 32.0656 8.4733L31.0497 6.12572H28.5863L27.323 13.2887C27.2651 13.6181 27.1177 13.9318 26.8966 14.188L24.0647 17.5133C23.3751 18.2401 22.6487 19.1603 22.2908 19.1864C21.6381 19.2962 21.3591 19.0557 21.5749 17.8532L23.7173 6.13618H19.8168L19.1799 9.58697C19.0957 10.0418 18.8956 10.4601 18.5903 10.8104L12.8897 17.3617C11.4053 18.9355 9.55768 19.1603 9.17869 19.1917H5.14663L14.3267 8.88112L14.7952 6.08912H3.00427L2.44104 9.2262H9.29449L0.446065 19.5315L0.00390625 22.4595C0.00390625 22.4595 8.28911 22.4908 8.43123 22.4595C10.8578 22.4595 13.0213 20.321 13.9003 19.4531L18.3219 14.2717L17.5165 18.627C17.0217 21.4556 18.1061 22.7889 20.459 22.747C21.9065 22.7209 22.8909 21.7641 23.8857 20.7759L26.5439 17.6806L25.6596 22.6738H29.5653L31.2708 12.8914C31.4972 11.6784 33.05 9.62357 34.6923 9.62357C36.4293 9.62357 37.2557 10.4654 36.8557 12.7711L35.1028 22.6738H38.977L40.8562 12.1437C40.9667 11.4535 42.23 9.4824 43.9776 9.4824C45.8041 9.4824 46.3937 10.4654 45.9884 12.7711L44.904 18.627C44.4092 21.4556 45.4936 22.7889 47.8465 22.747C49.294 22.7209 50.2784 21.7641 51.2679 20.7759L53.5787 18.0937L52.7629 22.6843L51.8259 27.9964H55.7264L56.9949 20.7654C57.5319 21.4451 58.2898 21.9941 59.2373 22.2922C59.4479 22.3549 59.6689 22.4072 59.9006 22.449C62.4272 22.5745 64.6801 21.3563 66.6803 19.2858L66.6908 19.2753L72.3599 13.4404L71.4335 18.5486C70.9335 21.3772 72.0125 22.6686 74.3654 22.6738C75.8919 22.6791 77.3237 21.9262 78.8239 20.9275L80.8136 19.5106C80.8504 19.5838 80.8873 19.6622 80.9241 19.7354C81.819 21.4713 83.4771 22.6163 85.93 22.6425C85.9353 22.6425 85.9405 22.6425 85.9405 22.6425C88.5198 22.6425 91.0411 20.2269 92.4939 19.2126C92.8677 18.9512 94.2836 17.8218 95.7996 16.5984L94.7258 22.6738H98.6263L100.332 12.8914C100.558 11.6784 102.116 9.62357 103.758 9.62357C104.385 9.62357 104.895 9.73337 105.269 9.98956L105.996 5.85384Z" fill="#303944"/>
</svg>
