<svg width="32" height="32" fill="none" xmlns="http://www.w3.org/2000/svg"><path d="M11.667 2.667A2.994 2.994 0 008.7 5.333H7a2.349 2.349 0 00-2.333 2.333v4A4.349 4.349 0 009 16h.033a7.682 7.682 0 006.3 5.26v2.073H13a4.338 4.338 0 00-4.333 4.334v.666a1 1 0 001 1H23a1 1 0 001-1v-.666a4.338 4.338 0 00-4.333-4.334h-2.334V21.26A7.682 7.682 0 0023.634 16h.033A4.349 4.349 0 0028 11.666v-4a2.349 2.349 0 00-2.333-2.333h-1.7C23.796 3.837 22.54 2.666 21 2.666h-9.333zM7 7.333h1.667v6.333c0 .102.011.201.015.303a2.31 2.31 0 01-2.015-2.303v-4c0-.196.136-.333.333-.333zm17 0h1.667c.196 0 .333.137.333.333v4a2.31 2.31 0 01-2.016 2.303c.004-.101.016-.2.016-.303V7.333z" fill="#303944"/></svg>