<svg width="92" height="28" viewBox="0 0 92 28" fill="none" xmlns="http://www.w3.org/2000/svg">
<path d="M18.8614 12.0003C17.6347 17.076 12.4214 20.306 7.20807 18.9218C2.14807 17.6913 -0.918601 12.4618 0.308066 7.23226C1.53473 2.15657 6.74807 -0.919616 11.9614 0.310857C17.0214 1.54133 20.2414 6.77084 18.8614 12.0003ZM13.8014 8.30893C13.9547 6.92465 13.0347 6.30941 11.6547 5.84798L12.1147 4.15608L11.0414 3.84846L10.7347 5.54036C10.4281 5.38656 10.1214 5.38656 9.81473 5.38656L10.2747 3.69466L9.2014 3.38704L8.7414 5.07894C8.58807 5.07894 8.2814 4.92513 8.12807 4.92513L6.59473 4.61751L6.4414 5.69417L7.20807 5.84798C7.51473 6.00179 7.66807 6.30941 7.66807 6.46322L7.20807 8.46274L6.4414 11.2313C6.4414 11.3851 6.28807 11.5389 5.9814 11.5389L5.21473 11.3851L4.6014 12.4618L5.9814 12.9232C6.28807 12.9232 6.59473 13.077 6.74807 13.077L6.28807 14.7689L7.3614 15.0765L7.8214 13.3846C8.12807 13.3846 8.43473 13.5384 8.7414 13.5384L8.2814 15.2303L9.35473 15.538L9.81473 13.8461C11.5014 14.1537 12.8814 13.9999 13.4947 12.308C13.9547 11.0775 13.4947 10.3084 12.4214 9.84702C13.1881 9.69321 13.6481 9.23178 13.8014 8.30893ZM11.5014 11.6927C11.0414 12.9232 8.89473 12.308 8.12807 12.1542L8.7414 9.69321C9.50807 10.0008 11.8081 10.3084 11.5014 11.6927ZM11.8081 8.30893C11.5014 9.38559 9.6614 8.77035 9.04807 8.61655L9.50807 6.61703C10.1214 6.77084 12.1147 7.07845 11.8081 8.30893Z" fill="#303944"/>
<path d="M28.2136 5.84767C28.9803 5.84767 29.5936 6.00148 30.207 6.3091C30.667 6.46291 31.127 6.92434 31.587 7.38576C31.8936 7.84719 32.2003 8.46243 32.3536 9.07766C32.507 9.6929 32.6603 10.3081 32.6603 11.0772C32.6603 12.1538 32.507 13.2305 32.047 14.3072C31.587 15.23 31.127 16.1529 30.3603 16.9219C29.5936 17.5372 28.827 18.1524 27.907 18.6138C26.8336 19.0753 25.7603 19.2291 24.687 19.2291C24.5336 19.2291 24.227 19.2291 23.9203 19.2291C23.6136 19.2291 23.1536 19.2291 22.6936 19.0753C22.2336 19.0753 21.6203 18.9214 21.1603 18.9214C20.7003 18.7676 20.087 18.6138 19.627 18.3062L23.9203 0.618166L27.6003 0.00292969L26.067 6.3091C26.527 6.15529 26.8336 6.00148 27.1403 6.00148C27.447 5.84767 27.7536 5.84767 28.2136 5.84767ZM24.9936 16.3067C25.607 16.3067 26.067 16.1529 26.527 15.8453C27.1403 15.5376 27.6003 15.23 27.907 14.7686C28.2136 14.3072 28.5203 13.6919 28.827 13.2305C28.9803 12.6153 29.1336 12 29.1336 11.3848C29.1336 10.6158 28.9803 10.0005 28.6736 9.53909C28.367 9.07766 27.907 8.92385 27.2936 8.92385C26.987 8.92385 26.6803 8.92385 26.3736 8.92385C26.067 9.07766 25.607 9.23147 25.3003 9.53909L23.767 16.1529C23.9203 16.1529 23.9203 16.1529 24.0736 16.1529C24.0736 16.3067 24.227 16.3067 24.227 16.3067C24.3803 16.3067 24.3803 16.3067 24.5336 16.3067C24.687 16.3067 24.8403 16.3067 24.9936 16.3067Z" fill="#303944"/>
<path d="M36.6487 18.9214H32.9688L36.0354 6.15529H39.7154L36.6487 18.9214ZM38.3354 4.6172C37.8754 4.6172 37.4154 4.46339 36.9554 4.15577C36.4954 3.84816 36.3421 3.38673 36.3421 2.77149C36.3421 2.31006 36.4954 2.00245 36.4954 1.69483C36.6487 1.38721 36.9554 1.2334 37.1087 0.925783C37.4154 0.771974 37.5687 0.618165 37.8754 0.464356C38.1821 0.310547 38.4887 0.310547 38.7954 0.310547C39.4087 0.310547 39.8687 0.464356 40.1754 0.771974C40.6354 1.07959 40.7887 1.38721 40.7887 2.15626C40.7887 2.46387 40.7887 2.77149 40.6354 3.07911C40.4821 3.38673 40.3287 3.54054 40.0221 3.84816C39.8687 4.00196 39.5621 4.15577 39.2554 4.30958C38.9487 4.46339 38.6421 4.6172 38.3354 4.6172Z" fill="#303944"/>
<path d="M42.7815 2.92578L46.6148 2.31055L45.6948 6.15577H49.6815L48.9148 9.07814H44.9282L43.8548 13.5386C43.7015 14 43.7015 14.3077 43.7015 14.6153C43.7015 14.9229 43.7015 15.2305 43.8548 15.3843C43.8548 15.6919 44.0082 15.8457 44.3148 15.9995C44.6215 16.1534 44.9282 16.1534 45.3882 16.1534C45.8482 16.1534 46.1548 16.1534 46.6148 16.1534C46.9215 15.9995 47.2282 15.8457 47.6882 15.8457L47.9948 18.6143C47.3815 18.7681 46.9215 18.9219 46.3082 19.0757C45.8482 19.2295 45.0815 19.2295 44.3148 19.2295C43.2415 19.2295 42.3215 19.0757 41.7082 18.7681C41.0948 18.4605 40.6348 17.9991 40.4815 17.3838C40.1748 16.7686 40.0215 16.1534 40.0215 15.3843C40.1748 14.6153 40.1748 13.8462 40.4815 13.0772L42.7815 2.92578Z" fill="#303944"/>
<path d="M49.5283 13.8452C49.5283 12.7686 49.6817 11.6919 49.9883 10.6152C50.4483 9.69239 50.9083 8.92335 51.5217 8.1543C52.2883 7.38526 53.055 6.77002 53.975 6.4624C54.895 6.00098 55.9683 5.69336 57.195 5.69336C57.9616 5.69336 58.575 5.84717 59.1883 6.00098C59.6483 6.15479 60.2616 6.3086 60.7216 6.4624L59.495 9.38478C59.1883 9.23097 58.7283 9.07716 58.4216 8.92335C58.115 8.92335 57.655 8.76954 57.195 8.76954C55.9683 8.76954 55.0483 9.23097 54.2817 10.1538C53.6683 10.9229 53.2083 11.9995 53.2083 13.3838C53.2083 14.3067 53.3617 14.9219 53.8217 15.3833C54.1283 15.9986 54.7416 16.1524 55.815 16.1524C56.275 16.1524 56.735 16.1524 57.195 15.9986C57.5016 15.9986 57.9616 15.8448 58.2683 15.6909L58.575 18.6133C58.115 18.7671 57.655 18.9209 57.0416 19.0747C56.4283 19.2286 55.815 19.2286 55.0483 19.2286C54.1283 19.2286 53.2083 19.0747 52.595 18.7671C51.8283 18.6133 51.215 18.1519 50.755 17.6905C50.295 17.229 49.9883 16.6138 49.835 15.8448C49.6817 15.2295 49.5283 14.6143 49.5283 13.8452Z" fill="#303944"/>
<path d="M65.475 19.2286C64.7084 19.2286 63.9417 19.0747 63.3284 18.9209C62.5617 18.6133 62.1017 18.3057 61.6417 17.8443C61.335 17.3828 61.0284 16.7676 60.7217 16.1524C60.5684 15.5371 60.415 14.7681 60.415 13.999C60.415 13.0762 60.5684 11.9995 60.875 11.0767C61.1817 10.1538 61.6417 9.23097 62.255 8.46192C62.8684 7.69288 63.635 7.07764 64.555 6.4624C65.475 6.00098 66.5484 5.69336 67.6217 5.69336C68.5417 5.69336 69.1551 5.84717 69.9217 6.15479C70.5351 6.4624 70.9951 6.77002 71.4551 7.23145C71.9151 7.69288 72.2217 8.30811 72.3751 8.92335C72.5284 9.53858 72.6817 10.3076 72.6817 11.0767C72.6817 11.9995 72.5284 13.0762 72.2217 13.999C71.9151 14.9219 71.4551 15.8448 70.8417 16.6138C70.2284 17.3828 69.4617 17.9981 68.6951 18.4595C67.7751 19.0747 66.7017 19.2286 65.475 19.2286ZM67.3151 8.76954C66.7017 8.76954 66.2417 8.92335 65.935 9.23097C65.475 9.53858 65.1684 10 64.8617 10.4614C64.555 10.9229 64.4017 11.3843 64.2484 11.9995C64.095 12.6148 64.095 13.0762 64.095 13.5376C64.095 14.4605 64.095 15.0757 64.4017 15.5371C64.7084 15.9986 65.1684 16.1524 65.7817 16.1524C66.395 16.1524 66.855 15.9986 67.3151 15.6909C67.6217 15.3833 67.9284 15.0757 68.2351 14.6143C68.5417 14.1529 68.6951 13.5376 68.8484 13.0762C69.0017 12.461 69.1551 11.8457 69.1551 11.3843C69.1551 10.6152 69.0017 10 68.6951 9.53858C68.3884 9.07716 67.9284 8.76954 67.3151 8.76954Z" fill="#303944"/>
<path d="M76.6673 18.9214H72.9873L76.054 6.15529H79.734L76.6673 18.9214ZM78.354 4.6172C77.894 4.6172 77.434 4.46339 76.974 4.15577C76.6673 3.84816 76.3606 3.38673 76.3606 2.77149C76.3606 2.31006 76.514 2.00245 76.6673 1.69483C76.6673 1.38721 76.974 1.2334 77.1273 0.925783C77.434 0.771974 77.5873 0.618165 77.894 0.464356C78.2006 0.310547 78.5073 0.310547 78.9673 0.310547C79.4273 0.310547 79.8873 0.464356 80.194 0.771974C80.654 1.07959 80.8073 1.38721 80.8073 2.15626C80.8073 2.46387 80.8073 2.77149 80.654 3.07911C80.5006 3.38673 80.3473 3.54054 80.0406 3.84816C79.8873 4.00196 79.5806 4.15577 79.274 4.30958C78.9673 4.46339 78.6606 4.6172 78.354 4.6172Z" fill="#303944"/>
<path d="M82.3411 6.6167C82.4944 6.6167 82.8011 6.46289 83.1077 6.46289C83.5677 6.30908 83.8744 6.15527 84.3344 6.15527C84.6411 6.00147 85.1011 6.00147 85.7144 5.84766C86.1744 5.84766 86.7877 5.84766 87.4011 5.84766C89.2411 5.84766 90.6211 6.30908 91.3877 7.53956C92.0011 8.61622 92.1544 10.1543 91.6944 12L90.0077 18.9214H86.4811L88.0144 12.1538C88.1677 11.6924 88.1677 11.3848 88.3211 10.9234C88.3211 10.4619 88.3211 10.1543 88.3211 9.84669C88.1677 9.53907 88.0144 9.38527 87.8611 9.07765C87.5544 8.92384 87.2477 8.92384 86.7877 8.92384C86.3277 8.92384 85.8677 8.92384 85.2544 9.07765L82.9544 18.9214H79.2744L82.3411 6.6167Z" fill="#303944"/>
<path d="M38.6408 26.6113L37.8741 27.8418H37.1074C37.7208 26.919 38.1808 25.9961 38.7941 25.2271C39.2541 24.3042 39.7141 23.5352 40.3274 22.9199H40.9408C41.0941 23.2275 41.0941 23.5352 41.0941 23.9966C41.2474 24.3042 41.2474 24.7656 41.2474 25.0733C41.4008 25.5347 41.4008 25.9961 41.5541 26.4575C41.5541 26.919 41.5541 27.3804 41.7074 27.8418H40.9408C40.9408 27.688 40.9408 27.3804 40.9408 27.2266C40.7874 26.919 40.7874 26.7652 40.7874 26.6113H38.6408ZM40.7874 25.9961C40.7874 25.6885 40.6341 25.2271 40.6341 24.9194C40.6341 24.458 40.4808 23.9966 40.4808 23.689C40.3274 23.8428 40.0208 24.1504 39.8674 24.6118C39.5608 24.9194 39.2541 25.5347 38.9474 25.9961H40.7874Z" fill="#303944"/>
<path d="M44.1613 27.9971C43.8546 27.9971 43.7013 27.9971 43.3946 27.8433C43.088 27.6895 42.9346 27.5357 42.7813 27.3819C42.628 27.228 42.4746 27.0742 42.4746 26.7666C42.3213 26.6128 42.3213 26.3052 42.3213 25.9976C42.3213 25.5361 42.3213 25.2285 42.4746 24.7671C42.628 24.4595 42.9346 23.9981 43.088 23.6904C43.3946 23.3828 43.7013 23.229 44.008 23.0752C44.3146 22.7676 44.7746 22.7676 45.2346 22.7676C45.5413 22.7676 45.848 22.7676 46.1546 22.9214C46.308 22.9214 46.4613 23.0752 46.6146 23.0752L46.308 23.6904C46.1546 23.5366 46.0013 23.5366 45.848 23.3828C45.6946 23.3828 45.388 23.3828 45.2346 23.3828C44.7746 23.3828 44.6213 23.3828 44.3146 23.5366C44.008 23.6904 43.8546 23.9981 43.548 24.1519C43.3946 24.4595 43.2413 24.7671 43.2413 25.0747C43.088 25.3823 43.088 25.69 43.088 25.9976C43.088 26.9204 43.3946 27.3819 44.3146 27.3819C44.468 27.3819 44.6213 27.3819 44.7746 27.3819C44.928 27.228 44.928 27.228 45.0813 27.228C45.2346 27.228 45.2346 27.228 45.388 27.0742H45.5413L45.6946 27.6895C45.6946 27.6895 45.5413 27.6895 45.388 27.6895C45.388 27.8433 45.2346 27.8433 45.0813 27.8433C44.928 27.8433 44.928 27.8433 44.7746 27.9971C44.6213 27.9971 44.468 27.9971 44.1613 27.9971Z" fill="#303944"/>
<path d="M48.3009 27.9971C47.9943 27.9971 47.6876 27.9971 47.3809 27.8433C47.2276 27.6895 47.0743 27.5357 46.9209 27.3819C46.7676 27.228 46.6143 27.0742 46.4609 26.7666C46.4609 26.6128 46.4609 26.3052 46.4609 25.9976C46.4609 25.5361 46.4609 25.2285 46.6143 24.7671C46.7676 24.4595 46.9209 23.9981 47.2276 23.6904C47.3809 23.3828 47.6876 23.229 48.1476 23.0752C48.4543 22.7676 48.9143 22.7676 49.2209 22.7676C49.6809 22.7676 49.9876 22.7676 50.1409 22.9214C50.4476 22.9214 50.6009 23.0752 50.6009 23.0752L50.2943 23.6904C50.2943 23.5366 50.1409 23.5366 49.9876 23.3828C49.6809 23.3828 49.5276 23.3828 49.2209 23.3828C48.9143 23.3828 48.6076 23.3828 48.3009 23.5366C48.1476 23.6904 47.8409 23.9981 47.6876 24.1519C47.5343 24.4595 47.3809 24.7671 47.2276 25.0747C47.2276 25.3823 47.0743 25.69 47.0743 25.9976C47.0743 26.9204 47.5343 27.3819 48.3009 27.3819C48.4543 27.3819 48.6076 27.3819 48.7609 27.3819C48.9143 27.228 49.0676 27.228 49.2209 27.228C49.2209 27.228 49.3743 27.228 49.3743 27.0742C49.5276 27.0742 49.5276 27.0742 49.6809 27.0742V27.6895C49.6809 27.6895 49.6809 27.6895 49.5276 27.6895C49.3743 27.8433 49.3743 27.8433 49.2209 27.8433C49.0676 27.8433 48.9143 27.8433 48.7609 27.9971C48.6076 27.9971 48.4543 27.9971 48.3009 27.9971Z" fill="#303944"/>
<path d="M50.2949 27.8418L51.3683 22.9199H54.4349L54.2816 23.3813H51.9816L51.6749 24.9194H53.6683L53.5149 25.5347H51.5216L51.0616 27.2266H53.5149L53.3616 27.8418H50.2949Z" fill="#303944"/>
<path d="M56.4279 22.7676C57.0413 22.7676 57.5013 22.9214 57.8079 23.0752C58.1146 23.3828 58.2679 23.6904 58.2679 24.1519C58.2679 24.4595 58.1146 24.7671 58.1146 24.9209C57.9613 25.2285 57.8079 25.3823 57.5013 25.5361C57.3479 25.6899 57.0413 25.8438 56.7346 25.8438C56.4279 25.9976 55.9679 25.9976 55.6613 25.9976H55.2013L54.7413 27.8433H53.9746L55.2013 22.9214C55.3546 22.9214 55.6613 22.7676 55.8146 22.7676C56.1213 22.7676 56.2746 22.7676 56.4279 22.7676ZM56.4279 23.3828C56.1213 23.3828 55.8146 23.3828 55.8146 23.3828L55.3546 25.3823H55.8146C55.9679 25.3823 56.1213 25.3823 56.4279 25.3823C56.5813 25.3823 56.7346 25.2285 56.8879 25.2285C57.0413 25.0747 57.1946 24.9209 57.3479 24.7671C57.5013 24.6133 57.5013 24.4595 57.5013 24.1519C57.5013 23.8442 57.3479 23.6904 57.1946 23.5366C57.0413 23.3828 56.7346 23.3828 56.4279 23.3828Z" fill="#303944"/>
<path d="M62.5609 22.9199L62.4075 23.3813H60.8742L59.8009 27.8418H59.0342L60.1075 23.3813H58.7275V22.9199H62.5609Z" fill="#303944"/>
<path d="M61.9482 27.8418L63.0216 22.9199H66.0883L65.9349 23.3813H63.6349L63.3282 24.9194H65.3216L65.1683 25.5347H63.1749L62.7149 27.2266H65.1683L65.0149 27.8418H61.9482Z" fill="#303944"/>
<path d="M68.0803 22.7676C68.847 22.7676 69.4603 22.9214 69.767 23.3828C70.0736 23.6904 70.3803 24.1519 70.3803 24.7671C70.3803 25.2285 70.227 25.5361 70.0736 25.9976C69.9203 26.3052 69.767 26.6128 69.4603 26.9204C69.307 27.228 68.847 27.5357 68.5403 27.6895C68.0803 27.8433 67.467 27.8433 67.007 27.8433C66.7003 27.8433 66.547 27.8433 66.2403 27.8433C66.087 27.8433 65.7803 27.8433 65.627 27.8433L66.8536 22.9214C67.007 22.9214 67.3136 22.7676 67.467 22.7676C67.6203 22.7676 67.927 22.7676 68.0803 22.7676ZM68.0803 23.3828C67.6203 23.3828 67.467 23.3828 67.467 23.3828L66.547 27.228C66.547 27.228 66.547 27.228 66.7003 27.3818C66.7003 27.3818 66.8536 27.3818 67.1603 27.3818C67.467 27.3818 67.7736 27.228 68.0803 27.0742C68.387 27.0742 68.6936 26.7666 68.847 26.6128C69.1536 26.3052 69.307 26.1514 69.4603 25.8438C69.4603 25.5361 69.6136 25.0747 69.6136 24.7671C69.6136 24.3057 69.4603 23.9981 69.1536 23.6904C69.0003 23.5366 68.5403 23.3828 68.0803 23.3828Z" fill="#303944"/>
<path d="M75.7484 27.8418H74.9817L75.595 25.5347H73.295L72.6817 27.8418H71.915L73.1417 22.9199H73.9084L73.4484 24.9194H75.7484L76.2084 22.9199H76.8217L75.7484 27.8418Z" fill="#303944"/>
<path d="M76.8213 27.8418L78.048 22.9199H80.9613L80.808 23.3813H78.508L78.2013 24.9194H80.1946L80.0413 25.5347H78.048L77.588 27.2266H80.0413L79.888 27.8418H76.8213Z" fill="#303944"/>
<path d="M83.1076 22.7676C83.5676 22.7676 84.0276 22.9214 84.3343 23.0752C84.641 23.3828 84.7943 23.6904 84.7943 24.1519C84.7943 24.4595 84.641 24.9209 84.4876 25.0747C84.181 25.3823 83.8743 25.6899 83.4143 25.6899C83.4143 25.8438 83.5676 25.9976 83.5676 26.1514C83.721 26.3052 83.721 26.459 83.8743 26.6128C83.8743 26.9204 84.0276 27.0742 84.0276 27.228C84.181 27.5357 84.181 27.6895 84.181 27.8433H83.5676C83.4143 27.6895 83.4143 27.5357 83.261 27.228C83.261 27.0742 83.261 26.9204 83.1076 26.7666C83.1076 26.6128 82.9543 26.459 82.9543 26.3052C82.801 26.1514 82.801 25.9976 82.6476 25.8438H82.4943H82.341H81.7276L81.2676 27.8433H80.6543L81.7276 22.9214C82.0343 22.9214 82.1876 22.7676 82.341 22.7676C82.6476 22.7676 82.801 22.7676 83.1076 22.7676ZM82.9543 23.3828C82.6476 23.3828 82.4943 23.3828 82.341 23.3828L81.881 25.3823H82.341C82.4943 25.3823 82.6476 25.2285 82.9543 25.2285C83.1076 25.2285 83.261 25.2285 83.4143 25.0747C83.721 25.0747 83.8743 24.9209 83.8743 24.7671C84.0276 24.6133 84.0276 24.4595 84.0276 24.1519C84.0276 23.8442 84.0276 23.6904 83.721 23.5366C83.5676 23.3828 83.261 23.3828 82.9543 23.3828Z" fill="#303944"/>
<path d="M84.7949 27.8418L86.0216 22.9199H88.9349V23.3813H86.6349L86.1749 24.9194H88.3216L88.1683 25.5347H86.1749L85.7149 27.2266H88.1683L88.0149 27.8418H84.7949Z" fill="#303944"/>
</svg>
