<svg width="22" height="16" fill="none" xmlns="http://www.w3.org/2000/svg"><rect x=".5" y=".5" width="21" height="15" rx="2" fill="#fff"/><mask id="a" style="mask-type:alpha" maskUnits="userSpaceOnUse" x="0" y="0" width="22" height="16"><rect x=".5" y=".5" width="21" height="15" rx="2" fill="#fff"/></mask><g mask="url(#a)"><path fill="#0A17A7" d="M.5.5h21v15H.5z"/><path fill-rule="evenodd" clip-rule="evenodd" d="M-.462-.937L8.5 5.108V-.5h5v5.608l8.962-6.045L23.58.72 16.495 5.5H21.5v5h-5.005l7.085 4.778-1.118 1.658-8.962-6.044V16.5h-5v-5.607l-8.962 6.044-1.118-1.658L5.505 10.5H.5v-5h5.005L-1.58.72-.462-.936z" fill="#fff"/><path d="M14.501 5.25L24-1m-8.49 11.773l8.515 5.74M6.504 5.233L-2.378-.753m9.846 11.457l-9.846 6.529" stroke="#DB1F35" stroke-width=".667" stroke-linecap="round"/><path fill-rule="evenodd" clip-rule="evenodd" d="M.5 9.5h9v6h3v-6h9v-3h-9v-6h-3v6h-9v3z" fill="#E6273E"/></g></svg>