<svg width="162" height="28" viewBox="0 0 162 28" fill="none" xmlns="http://www.w3.org/2000/svg">
<path d="M28.6016 27.7668C29.1966 27.3331 29.5812 26.646 29.5812 25.872V2.1067C29.5812 1.33275 29.1966 0.645665 28.6016 0.211914H51.8979C53.2152 0.211914 54.285 1.23909 54.285 2.50787V25.4708C54.285 26.7396 53.2152 27.7668 51.8979 27.7668H28.6016ZM36.103 14.1942V13.9564C36.1008 13.4594 36.0082 13.0186 35.8254 12.634C35.6426 12.2494 35.3865 11.953 35.0572 11.7447C34.7279 11.5364 34.3532 11.4323 33.933 11.4323C33.5083 11.4323 33.1296 11.5376 32.7969 11.7482C32.4642 11.9589 32.2087 12.2577 32.0304 12.6446C31.8521 13.0316 31.763 13.4783 31.763 13.9848V14.2759C31.7721 14.7634 31.868 15.1953 32.0508 15.5716C32.2337 15.948 32.4886 16.2373 32.8156 16.4396C33.1427 16.642 33.5174 16.7432 33.9398 16.7432C34.3622 16.7432 34.7387 16.6384 35.0691 16.429C35.3996 16.2195 35.6545 15.9207 35.8339 15.5326C36.0133 15.1445 36.103 14.6983 36.103 14.1942ZM34.8869 13.9777V14.2155C34.8846 14.7173 34.8017 15.1019 34.6382 15.3693C34.4747 15.6367 34.2419 15.7704 33.9398 15.7704C33.6219 15.7704 33.3823 15.6344 33.221 15.3622C33.0598 15.09 32.9792 14.7007 32.9792 14.1942L32.9826 13.8144C33.0166 12.8772 33.3334 12.4086 33.933 12.4086C34.2396 12.4086 34.4752 12.5417 34.6399 12.8079C34.8045 13.0742 34.8869 13.4641 34.8869 13.9777ZM37.7212 12.831H36.6447V16.6722H37.7927V13.9599C37.9017 13.7753 38.0687 13.683 38.2935 13.683C38.4911 13.683 38.6274 13.7286 38.7023 13.8197C38.7772 13.9108 38.8147 14.0534 38.8147 14.2475V16.6722H39.9662V14.1978C39.9593 13.7173 39.8611 13.3576 39.6715 13.1186C39.4819 12.8795 39.1951 12.76 38.8113 12.76C38.3639 12.76 38.013 12.934 37.7587 13.2819L37.7212 12.831ZM41.8126 16.6722V11.2193H40.6611V16.6722H41.8126ZM43.7305 16.6722V12.831H42.5791V16.6722H43.7305ZM42.5109 11.8405C42.5109 12.0109 42.57 12.1506 42.6881 12.2594C42.8062 12.3683 42.9595 12.4228 43.148 12.4228C43.3365 12.4228 43.4898 12.3683 43.6079 12.2594C43.726 12.1506 43.785 12.0109 43.785 11.8405C43.785 11.6701 43.726 11.5305 43.6079 11.4216C43.4898 11.3128 43.3365 11.2583 43.148 11.2583C42.9595 11.2583 42.8062 11.3128 42.6881 11.4216C42.57 11.5305 42.5109 11.6701 42.5109 11.8405ZM45.4917 12.831H44.4152V16.6722H45.5633V13.9599C45.6723 13.7753 45.8392 13.683 46.064 13.683C46.2616 13.683 46.3979 13.7286 46.4728 13.8197C46.5478 13.9108 46.5853 14.0534 46.5853 14.2475V16.6722H47.7367V14.1978C47.7299 13.7173 47.6317 13.3576 47.442 13.1186C47.2524 12.8795 46.9657 12.76 46.5819 12.76C46.1344 12.76 45.7836 12.934 45.5292 13.2819L45.4917 12.831ZM50.1554 16.7432C50.4575 16.7432 50.7396 16.6822 51.002 16.5603C51.2643 16.4384 51.467 16.2746 51.61 16.0686L51.0854 15.4225C50.881 15.6876 50.5971 15.8201 50.2338 15.8201C50.0135 15.8201 49.8341 15.7586 49.6955 15.6355C49.557 15.5125 49.4673 15.3433 49.4264 15.1279H51.7088V14.6628C51.7088 14.0641 51.559 13.5972 51.2592 13.2623C50.9594 12.9274 50.5506 12.76 50.0328 12.76C49.6649 12.76 49.3469 12.8422 49.0789 13.0067C48.8109 13.1712 48.6071 13.4037 48.4674 13.7043C48.3278 14.0049 48.2579 14.3516 48.2579 14.7445V14.8439C48.2579 15.4072 48.4328 15.8645 48.7825 16.216C49.1323 16.5674 49.5899 16.7432 50.1554 16.7432ZM50.026 13.683C50.2076 13.683 50.3473 13.7357 50.445 13.841C50.5426 13.9463 50.5892 14.0948 50.5847 14.2865V14.3788H49.4264C49.49 13.915 49.6898 13.683 50.026 13.683Z" fill="#303944"/>
<path d="M63.665 11.1802C63.8082 11.1802 63.9387 11.1342 64.0564 11.0421C64.1741 10.95 64.2329 10.8272 64.2329 10.6738C64.2329 10.5101 64.1664 10.3924 64.0334 10.3208C63.9003 10.2492 63.7775 10.2133 63.665 10.2133H62.9435V11.1802H63.665ZM64.3404 13.3749L63.4961 11.8555H62.9435V13.3749H62.0071V9.44599H63.6957C63.8799 9.44599 64.059 9.46645 64.2329 9.50737C64.4069 9.5483 64.5655 9.6148 64.7088 9.70689C64.8521 9.79897 64.9672 9.92431 65.0542 10.0829C65.1412 10.2415 65.1847 10.4384 65.1847 10.6738C65.1847 10.9398 65.1105 11.1598 64.9621 11.3337C64.8137 11.5076 64.6269 11.6355 64.4018 11.7174L65.4457 13.3749H64.3404ZM59.9961 11.4565C59.9961 10.9756 60.0882 10.5228 60.2724 10.0982C60.4566 9.67363 60.7074 9.3053 61.0246 8.99324C61.3419 8.68118 61.7128 8.43307 62.1375 8.24891C62.5623 8.06474 63.0151 7.97266 63.4961 7.97266C63.9771 7.97266 64.4299 8.06474 64.8547 8.24891C65.2794 8.43307 65.6503 8.68118 65.9676 8.99324C66.2848 9.3053 66.5356 9.67363 66.7198 10.0982C66.904 10.5228 66.9961 10.9756 66.9961 11.4565C66.9961 11.9373 66.904 12.3875 66.7198 12.807C66.5356 13.2265 66.2848 13.5923 65.9676 13.9043C65.6503 14.2164 65.2794 14.462 64.8547 14.641C64.4299 14.8201 63.9771 14.9096 63.4961 14.9096C63.0151 14.9096 62.5623 14.8201 62.1375 14.641C61.7128 14.462 61.3419 14.2164 61.0246 13.9043C60.7074 13.5923 60.4566 13.2265 60.2724 12.807C60.0882 12.3875 59.9961 11.9373 59.9961 11.4565ZM60.5487 11.4565C60.5487 11.8555 60.6255 12.2341 60.779 12.5922C60.9325 12.9503 61.1423 13.2649 61.4084 13.536C61.6745 13.8071 61.9866 14.0194 62.3448 14.1729C62.703 14.3264 63.0867 14.4031 63.4961 14.4031C63.9055 14.4031 64.2892 14.3264 64.6474 14.1729C65.0056 14.0194 65.3177 13.8071 65.5838 13.536C65.8499 13.2649 66.0597 12.9503 66.2132 12.5922C66.3667 12.2341 66.4435 11.8555 66.4435 11.4565C66.4435 11.0472 66.3667 10.6635 66.2132 10.3054C66.0597 9.94732 65.8499 9.63527 65.5838 9.36925C65.3177 9.10323 65.0056 8.89349 64.6474 8.74002C64.2892 8.58654 63.9055 8.50981 63.4961 8.50981C63.0867 8.50981 62.703 8.58654 62.3448 8.74002C61.9866 8.89349 61.6745 9.10323 61.4084 9.36925C61.1423 9.63527 60.9325 9.94732 60.779 10.3054C60.6255 10.6635 60.5487 11.0472 60.5487 11.4565Z" fill="#303944"/>
<path fill-rule="evenodd" clip-rule="evenodd" d="M71.4341 13.2854V9.12331H69.9473V8.27586H73.9292V9.12331H72.4458V13.2854H71.4341ZM75.4946 13.2854H74.5342V9.65638H75.4263V10.1724C75.5789 9.92862 75.7162 9.76801 75.8381 9.69056C75.96 9.6131 76.0985 9.57437 76.2534 9.57437C76.4722 9.57437 76.6829 9.63474 76.8857 9.75548L76.5884 10.5927C76.4266 10.4879 76.2762 10.4355 76.1372 10.4355C76.0028 10.4355 75.8888 10.4725 75.7954 10.5466C75.702 10.6206 75.6285 10.7544 75.575 10.9481C75.5214 11.1417 75.4946 11.5472 75.4946 12.1646V13.2854ZM78.0171 10.7635L77.1455 10.6064C77.2435 10.2555 77.4121 9.99582 77.6514 9.82724C77.8906 9.65866 78.2461 9.57437 78.7178 9.57437C79.1462 9.57437 79.4652 9.62506 79.6748 9.72644C79.8844 9.82781 80.032 9.95652 80.1174 10.1126C80.2029 10.2686 80.2456 10.5551 80.2456 10.972L80.2353 12.0928C80.2353 12.4117 80.2507 12.647 80.2815 12.7984C80.3123 12.9499 80.3698 13.1123 80.4541 13.2854H79.5039C79.4788 13.2216 79.4481 13.1271 79.4116 13.0018C79.3957 12.9448 79.3843 12.9072 79.3774 12.889C79.2134 13.0485 79.0379 13.1681 78.8511 13.2478C78.6642 13.3275 78.4648 13.3674 78.2529 13.3674C77.8792 13.3674 77.5847 13.266 77.3694 13.0633C77.1541 12.8605 77.0464 12.6042 77.0464 12.2944C77.0464 12.0894 77.0954 11.9066 77.1934 11.746C77.2913 11.5854 77.4286 11.4623 77.6052 11.3769C77.7818 11.2915 78.0365 11.2169 78.3691 11.1531C78.818 11.0688 79.1291 10.9902 79.3022 10.9173V10.8216C79.3022 10.6371 79.2567 10.5055 79.1655 10.427C79.0744 10.3484 78.9023 10.3091 78.6494 10.3091C78.4785 10.3091 78.3452 10.3427 78.2495 10.4099C78.1538 10.4771 78.0763 10.595 78.0171 10.7635ZM79.3022 11.5426C79.1792 11.5837 78.9844 11.6326 78.7178 11.6896C78.4512 11.7465 78.2769 11.8024 78.1948 11.857C78.0695 11.9459 78.0068 12.0586 78.0068 12.1953C78.0068 12.3297 78.057 12.4459 78.1572 12.5439C78.2575 12.6418 78.3851 12.6908 78.54 12.6908C78.7132 12.6908 78.8784 12.6339 79.0356 12.52C79.1519 12.4334 79.2282 12.3275 79.2646 12.2022C79.2897 12.1201 79.3022 11.9641 79.3022 11.734V11.5426ZM84.5215 13.2854H83.6294V12.7523C83.4813 12.9596 83.3064 13.114 83.1047 13.2153C82.9031 13.3167 82.6997 13.3674 82.4946 13.3674C82.0776 13.3674 81.7205 13.1994 81.4231 12.8634C81.1257 12.5274 80.977 12.0586 80.977 11.4572C80.977 10.8421 81.1217 10.3746 81.4111 10.0545C81.7005 9.73441 82.0662 9.57437 82.5083 9.57437C82.9139 9.57437 83.2648 9.74295 83.561 10.0801V8.27586H84.5215V13.2854ZM81.958 11.3923C81.958 11.7796 82.0116 12.0598 82.1187 12.2329C82.2736 12.4835 82.4901 12.6088 82.7681 12.6088C82.9891 12.6088 83.1771 12.5148 83.332 12.3269C83.487 12.1389 83.5645 11.8582 83.5645 11.4846C83.5645 11.0677 83.4893 10.7675 83.3389 10.5841C83.1885 10.4008 82.9959 10.3091 82.7612 10.3091C82.5334 10.3091 82.3425 10.3996 82.1887 10.5807C82.0349 10.7618 81.958 11.0324 81.958 11.3923ZM87.5703 12.1304L88.5273 12.291C88.4043 12.6418 88.21 12.9089 87.9446 13.0923C87.6791 13.2757 87.347 13.3674 86.9482 13.3674C86.3171 13.3674 85.8499 13.1612 85.5469 12.7489C85.3076 12.4186 85.188 12.0017 85.188 11.4982C85.188 10.8968 85.3452 10.4258 85.6597 10.0852C85.9741 9.74466 86.3717 9.57437 86.8525 9.57437C87.3926 9.57437 87.8187 9.75263 88.1309 10.1092C88.443 10.4657 88.5923 11.0118 88.5786 11.7477H86.1724C86.1792 12.0324 86.2567 12.254 86.4048 12.4123C86.5529 12.5706 86.7375 12.6498 86.9585 12.6498C87.1089 12.6498 87.2353 12.6088 87.3379 12.5268C87.4404 12.4448 87.5179 12.3126 87.5703 12.1304ZM87.625 11.1599C87.6182 10.882 87.5464 10.6707 87.4097 10.526C87.2729 10.3814 87.1066 10.3091 86.9106 10.3091C86.701 10.3091 86.5278 10.3854 86.3911 10.538C86.2544 10.6906 86.1872 10.8979 86.1894 11.1599H87.625ZM89.2519 11.9493V10.9891H91.1387V11.9493H89.2519ZM91.6206 9.65638H92.5059V10.1519C92.8226 9.76687 93.1997 9.57437 93.6372 9.57437C93.8696 9.57437 94.0713 9.62221 94.2422 9.71789C94.4131 9.81357 94.5532 9.95823 94.6626 10.1519C94.8221 9.95823 94.9941 9.81357 95.1787 9.71789C95.3633 9.62221 95.5604 9.57437 95.77 9.57437C96.0366 9.57437 96.2622 9.62848 96.4468 9.73669C96.6313 9.8449 96.7692 10.0038 96.8604 10.2134C96.9264 10.3683 96.9595 10.6189 96.9595 10.9652V13.2854H95.999V11.2112C95.999 10.8512 95.966 10.6189 95.8999 10.5141C95.811 10.3774 95.6743 10.3091 95.4897 10.3091C95.3553 10.3091 95.2288 10.3501 95.1104 10.4321C94.9919 10.5141 94.9064 10.6343 94.854 10.7926C94.8016 10.9509 94.7754 11.2009 94.7754 11.5426V13.2854H93.8149V11.2966C93.8149 10.9435 93.7979 10.7157 93.7637 10.6132C93.7295 10.5107 93.6765 10.4344 93.6047 10.3842C93.533 10.3341 93.4355 10.3091 93.3125 10.3091C93.1644 10.3091 93.0311 10.3489 92.9126 10.4287C92.7941 10.5084 92.7092 10.6234 92.658 10.7738C92.6067 10.9241 92.5811 11.1736 92.5811 11.5221V13.2854H91.6206V9.65638ZM98.6343 10.7635L97.7627 10.6064C97.8607 10.2555 98.0293 9.99582 98.2686 9.82724C98.5078 9.65866 98.8633 9.57437 99.335 9.57437C99.7633 9.57437 100.082 9.62506 100.292 9.72644C100.502 9.82781 100.649 9.95652 100.735 10.1126C100.82 10.2686 100.863 10.5551 100.863 10.972L100.853 12.0928C100.853 12.4117 100.868 12.647 100.899 12.7984C100.929 12.9499 100.987 13.1123 101.071 13.2854H100.121C100.096 13.2216 100.065 13.1271 100.029 13.0018C100.013 12.9448 100.001 12.9072 99.9946 12.889C99.8306 13.0485 99.6551 13.1681 99.4683 13.2478C99.2814 13.3275 99.082 13.3674 98.8701 13.3674C98.4964 13.3674 98.2019 13.266 97.9866 13.0633C97.7712 12.8605 97.6636 12.6042 97.6636 12.2944C97.6636 12.0894 97.7126 11.9066 97.8105 11.746C97.9085 11.5854 98.0458 11.4623 98.2224 11.3769C98.399 11.2915 98.6536 11.2169 98.9863 11.1531C99.4352 11.0688 99.7463 10.9902 99.9194 10.9173V10.8216C99.9194 10.6371 99.8739 10.5055 99.7827 10.427C99.6916 10.3484 99.5195 10.3091 99.2666 10.3091C99.0957 10.3091 98.9624 10.3427 98.8667 10.4099C98.771 10.4771 98.6935 10.595 98.6343 10.7635ZM99.9194 11.5426C99.7964 11.5837 99.6016 11.6326 99.335 11.6896C99.0684 11.7465 98.894 11.8024 98.812 11.857C98.6867 11.9459 98.624 12.0586 98.624 12.1953C98.624 12.3297 98.6742 12.4459 98.7744 12.5439C98.8747 12.6418 99.0023 12.6908 99.1572 12.6908C99.3304 12.6908 99.4956 12.6339 99.6528 12.52C99.769 12.4334 99.8454 12.3275 99.8818 12.2022C99.9069 12.1201 99.9194 11.9641 99.9194 11.734V11.5426ZM102.729 13.2854H101.769V9.65638H102.661V10.1724C102.813 9.92862 102.951 9.76801 103.073 9.69056C103.194 9.6131 103.333 9.57437 103.488 9.57437C103.707 9.57437 103.917 9.63474 104.12 9.75548L103.823 10.5927C103.661 10.4879 103.511 10.4355 103.372 10.4355C103.237 10.4355 103.123 10.4725 103.03 10.5466C102.936 10.6206 102.863 10.7544 102.809 10.9481C102.756 11.1417 102.729 11.5472 102.729 12.1646V13.2854ZM104.5 13.2854V8.27586H105.46V10.9344L106.584 9.65638H107.767L106.526 10.9822L107.856 13.2854H106.82L105.908 11.6554L105.46 12.1236V13.2854H104.5ZM110.149 11.4196C110.149 11.1007 110.228 10.792 110.385 10.4936C110.542 10.1952 110.765 9.96735 111.053 9.81016C111.342 9.65297 111.664 9.57437 112.019 9.57437C112.568 9.57437 113.018 9.75263 113.369 10.1092C113.72 10.4657 113.896 10.9162 113.896 11.4606C113.896 12.0097 113.718 12.4647 113.364 12.8258C113.01 13.1869 112.564 13.3674 112.026 13.3674C111.693 13.3674 111.376 13.2922 111.074 13.1419C110.772 12.9915 110.542 12.7711 110.385 12.4807C110.228 12.1902 110.149 11.8365 110.149 11.4196ZM111.134 11.4709C111.134 11.8308 111.219 12.1065 111.39 12.2978C111.561 12.4892 111.772 12.5849 112.022 12.5849C112.273 12.5849 112.483 12.4892 112.653 12.2978C112.823 12.1065 112.908 11.8286 112.908 11.4641C112.908 11.1087 112.823 10.8353 112.653 10.6439C112.483 10.4526 112.273 10.3569 112.022 10.3569C111.772 10.3569 111.561 10.4526 111.39 10.6439C111.219 10.8353 111.134 11.1109 111.134 11.4709ZM114.227 9.65638H114.76V9.38301C114.76 9.07775 114.793 8.84994 114.858 8.69958C114.923 8.54923 115.042 8.42678 115.217 8.33224C115.391 8.2377 115.611 8.19043 115.878 8.19043C116.151 8.19043 116.419 8.23144 116.681 8.31345L116.551 8.98321C116.399 8.94676 116.252 8.92853 116.11 8.92853C115.971 8.92853 115.872 8.961 115.811 9.02592C115.751 9.09085 115.721 9.21557 115.721 9.4001V9.65638H116.438V10.4116H115.721V13.2854H114.76V10.4116H114.227V9.65638ZM118.899 13.2854V8.27586H119.911V13.2854H118.899ZM124.17 13.2854H123.209V11.4333C123.209 11.0415 123.189 10.788 123.148 10.673C123.107 10.5579 123.04 10.4685 122.948 10.4047C122.856 10.341 122.745 10.3091 122.615 10.3091C122.448 10.3091 122.299 10.3546 122.167 10.4457C122.035 10.5369 121.944 10.6576 121.895 10.808C121.846 10.9583 121.822 11.2362 121.822 11.6417V13.2854H120.861V9.65638H121.753V10.1895C122.07 9.7794 122.469 9.57437 122.95 9.57437C123.162 9.57437 123.355 9.61253 123.531 9.68885C123.706 9.76516 123.839 9.86255 123.929 9.98101C124.019 10.0995 124.082 10.2339 124.117 10.3842C124.152 10.5346 124.17 10.7499 124.17 11.0301V13.2854ZM126.809 9.65638V10.4218H126.152V11.8844C126.152 12.1805 126.159 12.3531 126.171 12.4021C126.184 12.451 126.212 12.4915 126.257 12.5234C126.301 12.5553 126.355 12.5712 126.419 12.5712C126.508 12.5712 126.637 12.5405 126.805 12.4789L126.887 13.2239C126.664 13.3196 126.411 13.3674 126.128 13.3674C125.955 13.3674 125.799 13.3384 125.66 13.2803C125.521 13.2222 125.419 13.147 125.354 13.0547C125.289 12.9625 125.244 12.8377 125.219 12.6806C125.199 12.5689 125.188 12.3434 125.188 12.004V10.4218H124.748V9.65638H125.188V8.93537L126.152 8.37496V9.65638H126.809ZM129.577 12.1304L130.534 12.291C130.411 12.6418 130.217 12.9089 129.951 13.0923C129.686 13.2757 129.354 13.3674 128.955 13.3674C128.324 13.3674 127.857 13.1612 127.554 12.7489C127.314 12.4186 127.195 12.0017 127.195 11.4982C127.195 10.8968 127.352 10.4258 127.667 10.0852C127.981 9.74466 128.379 9.57437 128.859 9.57437C129.399 9.57437 129.826 9.75263 130.138 10.1092C130.45 10.4657 130.599 11.0118 130.585 11.7477H128.179C128.186 12.0324 128.264 12.254 128.412 12.4123C128.56 12.5706 128.744 12.6498 128.965 12.6498C129.116 12.6498 129.242 12.6088 129.345 12.5268C129.447 12.4448 129.525 12.3126 129.577 12.1304ZM129.632 11.1599C129.625 10.882 129.553 10.6707 129.416 10.526C129.28 10.3814 129.113 10.3091 128.917 10.3091C128.708 10.3091 128.535 10.3854 128.398 10.538C128.261 10.6906 128.194 10.8979 128.196 11.1599H129.632ZM132.288 13.2854H131.327V9.65638H132.219V10.1724C132.372 9.92862 132.509 9.76801 132.631 9.69056C132.753 9.6131 132.891 9.57437 133.046 9.57437C133.265 9.57437 133.476 9.63474 133.679 9.75548L133.381 10.5927C133.22 10.4879 133.069 10.4355 132.93 10.4355C132.796 10.4355 132.682 10.4725 132.588 10.5466C132.495 10.6206 132.421 10.7544 132.368 10.9481C132.314 11.1417 132.288 11.5472 132.288 12.1646V13.2854ZM134.81 10.7635L133.938 10.6064C134.036 10.2555 134.205 9.99582 134.444 9.82724C134.684 9.65866 135.039 9.57437 135.511 9.57437C135.939 9.57437 136.258 9.62506 136.468 9.72644C136.677 9.82781 136.825 9.95652 136.91 10.1126C136.996 10.2686 137.039 10.5551 137.039 10.972L137.028 12.0928C137.028 12.4117 137.044 12.647 137.074 12.7984C137.105 12.9499 137.163 13.1123 137.247 13.2854H136.297C136.272 13.2216 136.241 13.1271 136.205 13.0018C136.189 12.9448 136.177 12.9072 136.17 12.889C136.006 13.0485 135.831 13.1681 135.644 13.2478C135.457 13.3275 135.258 13.3674 135.046 13.3674C134.672 13.3674 134.378 13.266 134.162 13.0633C133.947 12.8605 133.839 12.6042 133.839 12.2944C133.839 12.0894 133.888 11.9066 133.986 11.746C134.084 11.5854 134.222 11.4623 134.398 11.3769C134.575 11.2915 134.829 11.2169 135.162 11.1531C135.611 11.0688 135.922 10.9902 136.095 10.9173V10.8216C136.095 10.6371 136.05 10.5055 135.958 10.427C135.867 10.3484 135.695 10.3091 135.442 10.3091C135.271 10.3091 135.138 10.3427 135.042 10.4099C134.947 10.4771 134.869 10.595 134.81 10.7635ZM136.095 11.5426C135.972 11.5837 135.777 11.6326 135.511 11.6896C135.244 11.7465 135.07 11.8024 134.988 11.857C134.862 11.9459 134.8 12.0586 134.8 12.1953C134.8 12.3297 134.85 12.4459 134.95 12.5439C135.05 12.6418 135.178 12.6908 135.333 12.6908C135.506 12.6908 135.671 12.6339 135.829 12.52C135.945 12.4334 136.021 12.3275 136.058 12.2022C136.083 12.1201 136.095 11.9641 136.095 11.734V11.5426ZM141.15 10.7294L140.204 10.9002C140.172 10.7111 140.099 10.5688 139.987 10.4731C139.874 10.3774 139.727 10.3296 139.547 10.3296C139.308 10.3296 139.117 10.4121 138.975 10.5773C138.832 10.7425 138.761 11.0187 138.761 11.406C138.761 11.8365 138.834 12.1406 138.978 12.3183C139.123 12.496 139.317 12.5849 139.561 12.5849C139.743 12.5849 139.893 12.5331 140.009 12.4294C140.125 12.3257 140.207 12.1475 140.255 11.8946L141.198 12.0552C141.1 12.4881 140.912 12.815 140.634 13.0359C140.356 13.2569 139.984 13.3674 139.517 13.3674C138.986 13.3674 138.562 13.2 138.247 12.8651C137.931 12.5302 137.773 12.0666 137.773 11.4743C137.773 10.8752 137.932 10.4087 138.249 10.075C138.565 9.74124 138.994 9.57437 139.534 9.57437C139.976 9.57437 140.327 9.66948 140.588 9.8597C140.849 10.0499 141.036 10.3398 141.15 10.7294ZM147.036 11.4436L148.017 11.7545C147.867 12.3013 147.617 12.7073 147.267 12.9727C146.917 13.2381 146.473 13.3708 145.936 13.3708C145.27 13.3708 144.723 13.1436 144.295 12.6891C143.867 12.2346 143.652 11.6133 143.652 10.825C143.652 9.99126 143.868 9.34372 144.298 8.8824C144.729 8.42108 145.295 8.19043 145.997 8.19043C146.61 8.19043 147.108 8.37154 147.491 8.73376C147.719 8.9479 147.889 9.25544 148.003 9.65638L147.002 9.89558C146.943 9.63588 146.819 9.43085 146.631 9.2805C146.443 9.13014 146.215 9.05497 145.946 9.05497C145.574 9.05497 145.273 9.18823 145.042 9.45477C144.81 9.72131 144.695 10.153 144.695 10.7499C144.695 11.3832 144.809 11.8342 145.037 12.1031C145.264 12.3719 145.561 12.5063 145.925 12.5063C146.194 12.5063 146.425 12.4209 146.619 12.25C146.813 12.0791 146.952 11.8103 147.036 11.4436ZM148.656 11.4196C148.656 11.1007 148.735 10.792 148.892 10.4936C149.049 10.1952 149.272 9.96735 149.56 9.81016C149.849 9.65297 150.17 9.57437 150.526 9.57437C151.075 9.57437 151.525 9.75263 151.876 10.1092C152.227 10.4657 152.402 10.9162 152.402 11.4606C152.402 12.0097 152.225 12.4647 151.871 12.8258C151.517 13.1869 151.07 13.3674 150.533 13.3674C150.2 13.3674 149.883 13.2922 149.581 13.1419C149.279 12.9915 149.049 12.7711 148.892 12.4807C148.735 12.1902 148.656 11.8365 148.656 11.4196ZM149.641 11.4709C149.641 11.8308 149.726 12.1065 149.897 12.2978C150.068 12.4892 150.279 12.5849 150.529 12.5849C150.78 12.5849 150.99 12.4892 151.16 12.2978C151.33 12.1065 151.415 11.8286 151.415 11.4641C151.415 11.1087 151.33 10.8353 151.16 10.6439C150.99 10.4526 150.78 10.3569 150.529 10.3569C150.279 10.3569 150.068 10.4526 149.897 10.6439C149.726 10.8353 149.641 11.1109 149.641 11.4709ZM154.074 13.2854H153.113V9.65638H154.005V10.1724C154.158 9.92862 154.295 9.76801 154.417 9.69056C154.539 9.6131 154.678 9.57437 154.833 9.57437C155.051 9.57437 155.262 9.63474 155.465 9.75548L155.167 10.5927C155.006 10.4879 154.855 10.4355 154.716 10.4355C154.582 10.4355 154.468 10.4725 154.375 10.5466C154.281 10.6206 154.208 10.7544 154.154 10.9481C154.1 11.1417 154.074 11.5472 154.074 12.1646V13.2854ZM155.851 9.65638H156.747V10.1895C156.863 10.0072 157.02 9.85914 157.218 9.74523C157.416 9.63133 157.636 9.57437 157.878 9.57437C158.299 9.57437 158.657 9.73953 158.951 10.0699C159.245 10.4002 159.392 10.8604 159.392 11.4504C159.392 12.0564 159.244 12.5274 158.948 12.8634C158.652 13.1994 158.293 13.3674 157.871 13.3674C157.671 13.3674 157.489 13.3275 157.326 13.2478C157.163 13.1681 156.992 13.0314 156.812 12.8377V14.6659H155.851V9.65638ZM156.801 11.4094C156.801 11.8172 156.882 12.1184 157.044 12.3132C157.206 12.508 157.403 12.6054 157.635 12.6054C157.859 12.6054 158.044 12.516 158.192 12.3371C158.34 12.1583 158.415 11.865 158.415 11.4572C158.415 11.0768 158.338 10.7943 158.186 10.6098C158.033 10.4252 157.844 10.333 157.618 10.333C157.383 10.333 157.189 10.4235 157.034 10.6046C156.879 10.7858 156.801 11.054 156.801 11.4094ZM160.154 13.2854V12.3252H161.115V13.2854H160.154ZM70.2993 16.6738H71.311V19.387C71.311 19.8176 71.3236 20.0967 71.3486 20.2242C71.3919 20.4293 71.495 20.5939 71.658 20.718C71.8209 20.8422 72.0436 20.9043 72.3262 20.9043C72.6133 20.9043 72.8298 20.8456 72.9756 20.7283C73.1214 20.611 73.2091 20.4669 73.2388 20.296C73.2684 20.1251 73.2832 19.8415 73.2832 19.4451V16.6738H74.2949V19.305C74.2949 19.9065 74.2676 20.3313 74.2129 20.5796C74.1582 20.8279 74.0574 21.0375 73.9104 21.2084C73.7634 21.3792 73.5669 21.5154 73.3208 21.6167C73.0747 21.7181 72.7534 21.7688 72.3569 21.7688C71.8784 21.7688 71.5155 21.7136 71.2683 21.6031C71.0211 21.4926 70.8257 21.3491 70.6821 21.1725C70.5386 20.996 70.444 20.8109 70.3984 20.6172C70.3324 20.3302 70.2993 19.9065 70.2993 19.346V16.6738ZM75.0161 20.648L75.98 20.501C76.021 20.6878 76.1042 20.8296 76.2295 20.9265C76.3548 21.0233 76.5303 21.0717 76.7559 21.0717C77.0042 21.0717 77.1911 21.0261 77.3164 20.935C77.4007 20.8712 77.4429 20.7858 77.4429 20.6787C77.4429 20.6058 77.4201 20.5455 77.3745 20.4976C77.3267 20.4521 77.2196 20.4099 77.0532 20.3712C76.2785 20.2003 75.7874 20.0443 75.5801 19.903C75.293 19.7071 75.1494 19.4349 75.1494 19.0863C75.1494 18.772 75.2736 18.5077 75.522 18.2936C75.7703 18.0794 76.1554 17.9723 76.6772 17.9723C77.174 17.9723 77.5431 18.0532 77.7847 18.215C78.0262 18.3767 78.1925 18.6159 78.2837 18.9326L77.3779 19.1C77.3392 18.9588 77.2657 18.8506 77.1575 18.7754C77.0492 18.7002 76.8949 18.6626 76.6943 18.6626C76.4414 18.6626 76.2603 18.6979 76.1509 18.7685C76.078 18.8187 76.0415 18.8836 76.0415 18.9633C76.0415 19.0317 76.0734 19.0898 76.1372 19.1376C76.2238 19.2014 76.5229 19.2914 77.0344 19.4075C77.546 19.5237 77.9032 19.6661 78.106 19.8347C78.3065 20.0056 78.4067 20.2436 78.4067 20.5489C78.4067 20.8815 78.2677 21.1674 77.9897 21.4066C77.7117 21.6458 77.3005 21.7654 76.7559 21.7654C76.2614 21.7654 75.87 21.6651 75.5818 21.4647C75.2935 21.2642 75.105 20.992 75.0161 20.648ZM81.3496 20.5284L82.3066 20.689C82.1836 21.0398 81.9893 21.3069 81.7239 21.4903C81.4584 21.6737 81.1263 21.7654 80.7275 21.7654C80.0963 21.7654 79.6292 21.5592 79.3262 21.1469C79.0869 20.8166 78.9673 20.3997 78.9673 19.8962C78.9673 19.2948 79.1245 18.8238 79.439 18.4832C79.7534 18.1426 80.151 17.9723 80.6318 17.9723C81.1719 17.9723 81.598 18.1506 81.9102 18.5071C82.2223 18.8637 82.3716 19.4098 82.3579 20.1457H79.9517C79.9585 20.4304 80.036 20.652 80.1841 20.8103C80.3322 20.9686 80.5168 21.0478 80.7378 21.0478C80.8882 21.0478 81.0146 21.0068 81.1172 20.9248C81.2197 20.8427 81.2972 20.7106 81.3496 20.5284ZM81.4043 19.5579C81.3975 19.28 81.3257 19.0687 81.189 18.924C81.0522 18.7794 80.8859 18.707 80.6899 18.707C80.4803 18.707 80.3071 18.7834 80.1704 18.936C80.0337 19.0886 79.9665 19.2959 79.9687 19.5579H81.4043ZM86.4697 21.6834H85.5776V21.1503C85.4295 21.3576 85.2546 21.5119 85.053 21.6133C84.8513 21.7147 84.6479 21.7654 84.4429 21.7654C84.0259 21.7654 83.6687 21.5974 83.3713 21.2613C83.074 20.9253 82.9253 20.4566 82.9253 19.8552C82.9253 19.2401 83.07 18.7725 83.3594 18.4525C83.6488 18.1324 84.0145 17.9723 84.4565 17.9723C84.8621 17.9723 85.213 18.1409 85.5093 18.4781V16.6738H86.4697V21.6834ZM83.9062 19.7903C83.9062 20.1775 83.9598 20.4578 84.0669 20.6309C84.2218 20.8815 84.4383 21.0068 84.7163 21.0068C84.9373 21.0068 85.1253 20.9128 85.2803 20.7249C85.4352 20.5369 85.5127 20.2561 85.5127 19.8825C85.5127 19.4656 85.4375 19.1655 85.2871 18.9821C85.1367 18.7987 84.9442 18.707 84.7095 18.707C84.4816 18.707 84.2908 18.7976 84.137 18.9787C83.9832 19.1598 83.9062 19.4303 83.9062 19.7903ZM91.7505 21.6834V21.14C91.6183 21.3337 91.4446 21.4863 91.2292 21.5979C91.0139 21.7096 90.7866 21.7654 90.5474 21.7654C90.3035 21.7654 90.0848 21.7118 89.8911 21.6048C89.6974 21.4977 89.5573 21.3473 89.4707 21.1537C89.3841 20.9601 89.3408 20.6924 89.3408 20.3507V18.0544H90.3013V19.7219C90.3013 20.2322 90.3189 20.5449 90.3542 20.6599C90.3896 20.775 90.4539 20.8661 90.5474 20.9333C90.6408 21.0005 90.7593 21.0341 90.9028 21.0341C91.0669 21.0341 91.2139 20.9891 91.3438 20.8991C91.4736 20.8091 91.5625 20.6975 91.6104 20.5643C91.6582 20.431 91.6821 20.1046 91.6821 19.5852V18.0544H92.6426V21.6834H91.7505ZM96.939 21.6834H95.9785V19.8313C95.9785 19.4394 95.958 19.186 95.917 19.071C95.876 18.9559 95.8093 18.8665 95.717 18.8027C95.6248 18.7389 95.5137 18.707 95.3838 18.707C95.2174 18.707 95.0682 18.7526 94.936 18.8437C94.8039 18.9348 94.7133 19.0556 94.6643 19.2059C94.6153 19.3563 94.5908 19.6342 94.5908 20.0397V21.6834H93.6304V18.0544H94.5225V18.5874C94.8392 18.1774 95.238 17.9723 95.7188 17.9723C95.9307 17.9723 96.1243 18.0105 96.2998 18.0868C96.4753 18.1631 96.608 18.2605 96.698 18.379C96.788 18.4975 96.8507 18.6319 96.886 18.7822C96.9213 18.9326 96.939 19.1478 96.939 19.4281V21.6834ZM101.242 21.6834H100.35V21.1503C100.202 21.3576 100.027 21.5119 99.8254 21.6133C99.6238 21.7147 99.4204 21.7654 99.2153 21.7654C98.7983 21.7654 98.4412 21.5974 98.1438 21.2613C97.8464 20.9253 97.6978 20.4566 97.6978 19.8552C97.6978 19.2401 97.8424 18.7725 98.1318 18.4525C98.4212 18.1324 98.7869 17.9723 99.229 17.9723C99.6346 17.9723 99.9855 18.1409 100.282 18.4781V16.6738H101.242V21.6834ZM98.6787 19.7903C98.6787 20.1775 98.7323 20.4578 98.8394 20.6309C98.9943 20.8815 99.2108 21.0068 99.4888 21.0068C99.7098 21.0068 99.8978 20.9128 100.053 20.7249C100.208 20.5369 100.285 20.2561 100.285 19.8825C100.285 19.4656 100.21 19.1655 100.06 18.9821C99.9092 18.7987 99.7166 18.707 99.4819 18.707C99.2541 18.707 99.0632 18.7976 98.9094 18.9787C98.7556 19.1598 98.6787 19.4303 98.6787 19.7903ZM104.291 20.5284L105.248 20.689C105.125 21.0398 104.931 21.3069 104.665 21.4903C104.4 21.6737 104.068 21.7654 103.669 21.7654C103.038 21.7654 102.571 21.5592 102.268 21.1469C102.028 20.8166 101.909 20.3997 101.909 19.8962C101.909 19.2948 102.066 18.8238 102.38 18.4832C102.695 18.1426 103.092 17.9723 103.573 17.9723C104.113 17.9723 104.539 18.1506 104.852 18.5071C105.164 18.8637 105.313 19.4098 105.299 20.1457H102.893C102.9 20.4304 102.977 20.652 103.125 20.8103C103.274 20.9686 103.458 21.0478 103.679 21.0478C103.83 21.0478 103.956 21.0068 104.059 20.9248C104.161 20.8427 104.239 20.7106 104.291 20.5284ZM104.346 19.5579C104.339 19.28 104.267 19.0687 104.13 18.924C103.994 18.7794 103.827 18.707 103.631 18.707C103.422 18.707 103.249 18.7834 103.112 18.936C102.975 19.0886 102.908 19.2959 102.91 19.5579H104.346ZM107.001 21.6834H106.041V18.0544H106.933V18.5703C107.086 18.3266 107.223 18.166 107.345 18.0885C107.467 18.0111 107.605 17.9723 107.76 17.9723C107.979 17.9723 108.19 18.0327 108.393 18.1535L108.095 18.9907C107.933 18.8859 107.783 18.8335 107.644 18.8335C107.51 18.8335 107.396 18.8705 107.302 18.9445C107.209 19.0186 107.135 19.1524 107.082 19.346C107.028 19.5397 107.001 19.9452 107.001 20.5625V21.6834ZM110.751 21.6834V16.6738H111.711V21.6834H110.751ZM112.696 17.5623V16.6738H113.656V17.5623H112.696ZM112.696 21.6834V18.0544H113.656V21.6834H112.696ZM117.806 19.1273L116.859 19.2982C116.827 19.1091 116.755 18.9667 116.642 18.8711C116.529 18.7754 116.383 18.7275 116.203 18.7275C115.963 18.7275 115.773 18.8101 115.63 18.9753C115.488 19.1404 115.417 19.4167 115.417 19.8039C115.417 20.2345 115.489 20.5386 115.634 20.7163C115.778 20.894 115.972 20.9829 116.216 20.9829C116.399 20.9829 116.548 20.931 116.664 20.8274C116.78 20.7237 116.862 20.5455 116.91 20.2926L117.854 20.4532C117.756 20.886 117.568 21.2129 117.29 21.4339C117.012 21.6549 116.639 21.7654 116.172 21.7654C115.641 21.7654 115.218 21.5979 114.902 21.2631C114.587 20.9282 114.429 20.4646 114.429 19.8723C114.429 19.2731 114.587 18.8067 114.904 18.473C115.221 18.1392 115.649 17.9723 116.189 17.9723C116.631 17.9723 116.982 18.0675 117.243 18.2577C117.504 18.4479 117.692 18.7378 117.806 19.1273ZM120.636 20.5284L121.593 20.689C121.47 21.0398 121.275 21.3069 121.01 21.4903C120.745 21.6737 120.412 21.7654 120.014 21.7654C119.382 21.7654 118.915 21.5592 118.612 21.1469C118.373 20.8166 118.253 20.3997 118.253 19.8962C118.253 19.2948 118.411 18.8238 118.725 18.4832C119.04 18.1426 119.437 17.9723 119.918 17.9723C120.458 17.9723 120.884 18.1506 121.196 18.5071C121.508 18.8637 121.658 19.4098 121.644 20.1457H119.238C119.245 20.4304 119.322 20.652 119.47 20.8103C119.618 20.9686 119.803 21.0478 120.024 21.0478C120.174 21.0478 120.301 21.0068 120.403 20.9248C120.506 20.8427 120.583 20.7106 120.636 20.5284ZM120.69 19.5579C120.684 19.28 120.612 19.0687 120.475 18.924C120.338 18.7794 120.172 18.707 119.976 18.707C119.766 18.707 119.593 18.7834 119.457 18.936C119.32 19.0886 119.253 19.2959 119.255 19.5579H120.69ZM125.729 21.6834H124.768V19.8313C124.768 19.4394 124.748 19.186 124.707 19.071C124.666 18.9559 124.599 18.8665 124.507 18.8027C124.414 18.7389 124.303 18.707 124.173 18.707C124.007 18.707 123.858 18.7526 123.726 18.8437C123.593 18.9348 123.503 19.0556 123.454 19.2059C123.405 19.3563 123.38 19.6342 123.38 20.0397V21.6834H122.42V18.0544H123.312V18.5874C123.629 18.1774 124.028 17.9723 124.508 17.9723C124.72 17.9723 124.914 18.0105 125.089 18.0868C125.265 18.1631 125.398 18.2605 125.488 18.379C125.578 18.4975 125.64 18.6319 125.676 18.7822C125.711 18.9326 125.729 19.1478 125.729 19.4281V21.6834ZM126.364 20.648L127.328 20.501C127.369 20.6878 127.452 20.8296 127.578 20.9265C127.703 21.0233 127.878 21.0717 128.104 21.0717C128.352 21.0717 128.539 21.0261 128.665 20.935C128.749 20.8712 128.791 20.7858 128.791 20.6787C128.791 20.6058 128.768 20.5455 128.723 20.4976C128.675 20.4521 128.568 20.4099 128.401 20.3712C127.627 20.2003 127.136 20.0443 126.928 19.903C126.641 19.7071 126.498 19.4349 126.498 19.0863C126.498 18.772 126.622 18.5077 126.87 18.2936C127.118 18.0794 127.504 17.9723 128.025 17.9723C128.522 17.9723 128.891 18.0532 129.133 18.215C129.374 18.3767 129.541 18.6159 129.632 18.9326L128.726 19.1C128.687 18.9588 128.614 18.8506 128.506 18.7754C128.397 18.7002 128.243 18.6626 128.042 18.6626C127.79 18.6626 127.608 18.6979 127.499 18.7685C127.426 18.8187 127.39 18.8836 127.39 18.9633C127.39 19.0317 127.422 19.0898 127.485 19.1376C127.572 19.2014 127.871 19.2914 128.383 19.4075C128.894 19.5237 129.251 19.6661 129.454 19.8347C129.655 20.0056 129.755 20.2436 129.755 20.5489C129.755 20.8815 129.616 21.1674 129.338 21.4066C129.06 21.6458 128.649 21.7654 128.104 21.7654C127.61 21.7654 127.218 21.6651 126.93 21.4647C126.642 21.2642 126.453 20.992 126.364 20.648ZM132.698 20.5284L133.655 20.689C133.532 21.0398 133.337 21.3069 133.072 21.4903C132.807 21.6737 132.474 21.7654 132.076 21.7654C131.444 21.7654 130.977 21.5592 130.674 21.1469C130.435 20.8166 130.315 20.3997 130.315 19.8962C130.315 19.2948 130.473 18.8238 130.787 18.4832C131.102 18.1426 131.499 17.9723 131.98 17.9723C132.52 17.9723 132.946 18.1506 133.258 18.5071C133.57 18.8637 133.72 19.4098 133.706 20.1457H131.3C131.307 20.4304 131.384 20.652 131.532 20.8103C131.68 20.9686 131.865 21.0478 132.086 21.0478C132.236 21.0478 132.363 21.0068 132.465 20.9248C132.568 20.8427 132.645 20.7106 132.698 20.5284ZM132.752 19.5579C132.746 19.28 132.674 19.0687 132.537 18.924C132.4 18.7794 132.234 18.707 132.038 18.707C131.828 18.707 131.655 18.7834 131.519 18.936C131.382 19.0886 131.315 19.2959 131.317 19.5579H132.752Z" fill="#303944"/>
<path d="M28.6493 25.566C28.6493 26.8442 27.6125 27.8789 26.3359 27.8789H3.19909C1.92063 27.8789 0.884766 26.8442 0.884766 25.566V2.43396C0.884766 1.15583 1.92063 0.121094 3.19909 0.121094H26.3359C27.6125 0.121094 28.6493 1.15583 28.6493 2.43396V25.566ZM16.3623 14.3185L17.7137 13.9976L17.7123 11.2457C17.7123 10.6135 17.9502 10.1997 18.4219 10.0096C18.8011 9.85511 19.091 9.86744 19.091 9.86744V8.59567C19.091 8.59567 18.9721 8.55959 18.7355 8.6199C17.9681 8.81968 17.6378 9.67866 17.6378 9.67866V9.02584L16.3601 9.33397L16.3623 14.3185ZM9.49485 15.9567L10.9601 15.6063C10.9601 15.6063 10.658 15.3864 10.658 14.2397C10.6567 13.7465 10.658 11.7174 10.658 11.7174L11.6265 11.4855V10.4667L10.658 10.698V9.58606L9.28692 9.91182V11.0238L8.62242 11.1821V12.2024L9.28604 12.0436V14.5208C9.28604 15.6401 9.49485 15.9567 9.49485 15.9567ZM11.8085 12.9979C11.8085 14.4413 12.2425 15.4423 13.8684 15.0531C15.5848 14.6448 15.7218 13.4653 15.7331 12.9897C15.7345 12.8761 15.7317 12.774 15.7317 12.774L14.4963 13.0723C14.4963 13.0723 14.494 13.2173 14.4877 13.2754C14.4521 13.6292 14.3259 13.9163 13.8715 14.0126C13.346 14.1252 13.1715 13.7287 13.1715 12.8921V12.8489L15.8079 12.2249C15.8079 12.2249 15.8061 12.0159 15.8133 11.5881C15.8345 10.3918 15.295 9.49924 13.7985 9.84218C13.039 10.0161 12.5175 10.3972 12.2002 10.9822C11.9329 11.4755 11.8085 12.1172 11.8085 12.9979ZM13.8531 10.7642C14.338 10.6529 14.5039 10.9377 14.5061 11.4773C14.5061 11.589 14.5061 11.6608 14.5039 11.693L13.1774 12.0114C13.1873 11.2956 13.4163 10.8641 13.8531 10.7642ZM23.829 10.071C23.8814 11.6342 24.2162 12.6303 25.9241 12.2262C27.165 11.9355 27.8264 11.1373 27.83 9.87171C27.83 9.76329 27.8287 9.66456 27.8287 9.66456L26.5103 9.97818C26.5103 9.97818 26.5076 10.173 26.5066 10.2341C26.4985 10.6211 26.4301 11.0634 25.9309 11.1672C25.356 11.2889 25.2248 10.8467 25.2248 9.88129C25.2248 9.83584 25.2229 9.77567 25.2229 9.43814C25.2229 8.48801 25.4247 8.01041 25.9241 7.88411C26.3441 7.77801 26.504 7.9994 26.5035 8.58257C26.5035 8.58813 26.504 8.76814 26.504 8.76814L27.8255 8.45177L27.8241 8.36081C27.8241 7.86945 27.7471 7.51858 27.5485 7.25819C27.3417 6.98589 26.9335 6.70391 25.8566 6.95054C24.1692 7.33533 23.7775 8.54585 23.829 10.071ZM19.182 12.2151C19.182 13.0656 19.7121 13.6846 20.7117 13.449C21.6633 13.2249 21.939 12.5294 21.939 12.5294C21.9908 12.739 22.1087 12.9829 22.1087 12.9829L23.3695 12.6841C23.3695 12.6841 23.1715 12.5281 23.1715 11.4594V9.25018C23.1692 8.31696 22.7133 7.71767 21.3478 8.03242C20.2969 8.27579 19.6874 8.74055 19.482 9.4314C19.3727 9.79459 19.3933 10.1908 19.3933 10.1908L20.6774 9.88747C20.6774 9.88747 20.6733 9.76165 20.6856 9.63129C20.708 9.38881 20.8192 9.08461 21.238 8.9785C21.694 8.86227 21.822 9.09974 21.817 9.37648C21.8128 9.70635 21.7937 9.89438 20.8782 10.2731C19.8598 10.6945 19.182 11.06 19.182 12.2151ZM21.8087 10.6377V11.3327C21.8087 11.8615 21.5252 12.2426 21.1169 12.3451C20.7368 12.4398 20.5269 12.2174 20.5269 11.8794C20.5269 11.4896 20.7177 11.2361 21.1374 11.0303C21.5462 10.8312 21.8087 10.6377 21.8087 10.6377ZM2.30821 19.4151C2.36266 19.4151 2.41804 19.4095 2.46979 19.3969C2.57376 19.375 3.07551 19.256 3.49543 19.151L3.52467 19.144V17.6859L1.67231 18.139L1.65748 18.1427L1.64893 18.1539C1.56565 18.2879 1.52198 18.4404 1.52198 18.5986C1.52198 19.0493 1.87481 19.4151 2.30821 19.4151ZM2.30821 21.3263C2.36266 21.3263 2.41804 21.3212 2.46979 21.3105C2.57376 21.2894 3.07551 21.1685 3.49543 21.0639L3.52467 21.056V19.5971L1.67231 20.0507L1.65748 20.054L1.64893 20.0685C1.56565 20.1991 1.52198 20.3517 1.52198 20.5119C1.52198 20.9618 1.87481 21.3263 2.30821 21.3263ZM2.30821 23.1465C2.36266 23.1465 2.41804 23.1404 2.46979 23.1301C2.55929 23.1092 3.05212 22.9939 3.49543 22.8828L3.52467 22.8754V21.4173L1.65748 21.873L1.64893 21.8879C1.56565 22.0181 1.52198 22.1715 1.52198 22.3311C1.52198 22.7812 1.87481 23.1465 2.30821 23.1465ZM2.06865 17.6859L3.52467 17.3432V9.40404L2.06817 9.74633L2.06865 17.6859ZM5.69642 17.0322C5.69642 16.5398 5.29124 16.1387 4.79332 16.1387C4.2926 16.1387 3.8888 16.5398 3.8888 17.0322L3.8897 24.4581C3.8897 25.7908 4.98758 26.8778 6.33587 26.8778C7.01983 26.8778 8.89361 26.8746 8.89361 26.8746L8.89456 23.7768C8.89504 22.0842 8.89552 20.3613 8.89552 20.3223C8.89552 19.9302 8.69978 19.5669 8.36997 19.3483L6.08963 17.8171C6.08963 17.8171 6.08916 21.1421 6.08916 21.2943C6.08916 21.4011 6.0023 21.4883 5.89437 21.4883C5.78735 21.4883 5.70102 21.4011 5.70102 21.2943C5.70102 21.2571 5.69642 17.4914 5.69642 17.0322ZM6.96931 11.4604C6.02245 11.6777 5.66373 12.464 5.66373 12.464V11.9019L4.34395 12.2125L4.34533 15.8038C4.49894 15.743 4.66722 15.7096 4.8434 15.7096C5.18505 15.7096 5.49635 15.8358 5.73505 16.0454V13.7266C5.73505 13.1713 6.0137 12.7275 6.41009 12.6406C6.70899 12.5752 6.95823 12.6818 6.95823 13.2106L6.95913 16.5938L8.34933 16.269V12.6905C8.34933 11.8227 8.01451 11.2171 6.96931 11.4604ZM26.9652 6.40074C27.4416 6.40074 27.83 6.0127 27.83 5.53679C27.83 5.06002 27.4416 4.67156 26.9652 4.67156C26.4888 4.67156 26.1004 5.06002 26.1004 5.53679C26.1004 6.0127 26.4888 6.40074 26.9652 6.40074Z" fill="#303944"/>
</svg>
