<svg width="36" height="36" fill="none" xmlns="http://www.w3.org/2000/svg"><path d="M36 18c0 9.941-8.059 18-18 18S0 27.941 0 18 8.059 0 18 0s18 8.059 18 18zM3.6 18c0 7.953 6.447 14.4 14.4 14.4S32.4 25.953 32.4 18 25.953 3.6 18 3.6 3.6 10.047 3.6 18z" fill="#D8D8D8"/><path d="M18 1.8c0-.994.808-1.81 1.797-1.71a18 18 0 11-7.992 1.01c.934-.343 1.919.246 2.166 1.209.248.963-.339 1.933-1.263 2.299a14.4 14.4 0 107.087-.896C18.81 3.588 18 2.794 18 1.8z" fill="#40C3FF"/><path d="M9.013 20.466v-1.453l3.643-5.74h1.253v2.011h-.741L10.87 18.92v.068h5.177v1.479H9.013zM13.202 22v-1.977l.034-.644v-6.106h1.73V22h-1.764zm4.99.11a.995.995 0 01-.725-.297.996.996 0 01-.298-.725c0-.278.1-.517.298-.716a.995.995 0 01.725-.298c.273 0 .511.1.716.298a.963.963 0 01.306.716c0 .188-.048.36-.144.516a1.1 1.1 0 01-.371.37.977.977 0 01-.507.137zm5.4.01c-.656 0-1.24-.107-1.751-.32-.509-.216-.908-.51-1.198-.882a2.005 2.005 0 01-.434-1.266c0-.364.082-.698.247-1.001.167-.307.395-.561.681-.763.287-.205.608-.335.963-.392v-.06a1.892 1.892 0 01-1.133-.677 1.95 1.95 0 01-.435-1.258c0-.451.132-.853.397-1.205.264-.356.626-.634 1.086-.836.463-.204.989-.307 1.577-.307s1.112.103 1.572.307c.463.205.827.485 1.091.84.265.352.398.753.4 1.201-.002.48-.15.9-.442 1.258a1.905 1.905 0 01-1.125.677v.06c.35.057.666.187.95.392.287.201.514.456.682.763a2.046 2.046 0 01-.18 2.267c-.289.372-.69.666-1.2.882-.51.213-1.092.32-1.748.32zm0-1.356c.293 0 .548-.052.767-.157a1.26 1.26 0 00.511-.444c.125-.19.188-.409.188-.656 0-.253-.064-.476-.192-.669a1.317 1.317 0 00-.52-.46 1.613 1.613 0 00-.754-.17 1.63 1.63 0 00-.754.17 1.31 1.31 0 00-.524.46 1.204 1.204 0 00-.188.67c0 .246.061.465.183.655.122.188.294.336.516.444.222.105.477.157.767.157zm0-3.899c.244 0 .462-.05.652-.15.19-.099.34-.236.447-.412.108-.177.162-.38.162-.61a1.09 1.09 0 00-.605-1.001 1.38 1.38 0 00-.656-.15c-.247 0-.466.05-.656.15-.19.096-.34.231-.448.405-.105.17-.157.369-.157.596 0 .23.054.433.162.61.108.176.257.313.447.413.19.1.408.15.652.15z" fill="#40C3FF"/></svg>