<svg width="32" height="26" fill="none" xmlns="http://www.w3.org/2000/svg"><g clip-path="url(#clip0_197_1284)"><path d="M31.37 25.161v.064h.059a.063.063 0 00.032-.008.029.029 0 00.012-.025.027.027 0 00-.012-.023.057.057 0 00-.032-.009h-.06v.001zm.06-.045a.11.11 0 01.071.02.07.07 0 01.025.057.065.065 0 01-.02.05.097.097 0 01-.057.024l.08.092h-.062l-.073-.091h-.024v.09h-.052v-.242h.112zm-.017.327a.192.192 0 00.08-.016.208.208 0 00.106-.108.209.209 0 000-.16.209.209 0 00-.107-.107.21.21 0 00-.159 0 .204.204 0 00-.065.044.207.207 0 000 .289.204.204 0 00.145.06v-.002zm0-.465a.268.268 0 01.245.16.259.259 0 01-.14.344.263.263 0 01-.37-.244.26.26 0 01.161-.241.267.267 0 01.105-.021v.002zM6.915 24.04c0-.463.303-.844.797-.844.472 0 .791.365.791.845s-.319.844-.791.844c-.494 0-.797-.38-.797-.845zm2.126 0v-1.32h-.57v.322c-.182-.238-.456-.387-.83-.387-.736 0-1.314.58-1.314 1.385s.578 1.385 1.314 1.385c.373 0 .648-.15.83-.386v.32h.57v-1.32zm19.295 0c0-.463.302-.844.797-.844.473 0 .79.365.79.845s-.317.844-.79.844c-.494 0-.797-.38-.797-.845zm2.127 0v-2.377h-.572v1.38c-.18-.238-.456-.387-.83-.387-.735 0-1.313.58-1.313 1.385s.578 1.385 1.314 1.385c.373 0 .648-.15.83-.386v.32h.57v-1.32zm-14.334-.87c.368 0 .604.23.664.639H15.43c.06-.381.291-.64.698-.64zm.011-.515c-.77 0-1.308.562-1.308 1.385 0 .838.56 1.385 1.346 1.385.396 0 .758-.1 1.077-.37l-.28-.425c-.22.177-.5.276-.764.276-.368 0-.703-.171-.785-.646h1.95c.005-.071.011-.143.011-.22-.006-.823-.512-1.385-1.247-1.385zm6.894 1.385c0-.464.303-.845.797-.845.472 0 .791.365.791.845s-.319.844-.791.844c-.494 0-.797-.38-.797-.844zm2.126 0v-1.32h-.57v.322c-.182-.238-.456-.387-.83-.387-.736 0-1.314.58-1.314 1.385s.578 1.385 1.314 1.385c.374 0 .648-.15.83-.386v.32h.57v-1.32zm-5.35 0c0 .8.554 1.384 1.4 1.384.396 0 .66-.088.945-.314l-.275-.464a1.15 1.15 0 01-.688.238c-.456-.006-.79-.337-.79-.844 0-.508.334-.839.79-.845.248 0 .473.083.688.238l.274-.464c-.285-.226-.548-.314-.944-.314-.846 0-1.4.584-1.4 1.385zm7.361-1.385a.774.774 0 00-.692.386v-.32h-.566v2.637h.572V23.88c0-.436.186-.679.56-.679a.921.921 0 01.357.067l.176-.54a1.211 1.211 0 00-.407-.073zm-15.306.276c-.275-.182-.654-.276-1.071-.276-.666 0-1.094.32-1.094.844 0 .43.319.696.906.778l.27.039c.313.044.46.127.46.276 0 .204-.207.32-.598.32-.395 0-.68-.127-.873-.276l-.268.447c.313.232.708.342 1.137.342.758 0 1.197-.358 1.197-.86 0-.464-.345-.706-.917-.789l-.27-.04c-.246-.031-.444-.081-.444-.258 0-.193.186-.309.5-.309.335 0 .66.127.818.226l.248-.463h-.001zm7.368-.275a.773.773 0 00-.692.386v-.32h-.566v2.636h.571V23.88c0-.436.187-.679.56-.679a.921.921 0 01.357.067l.176-.54a1.211 1.211 0 00-.407-.073zm-4.873.065h-.934v-.8h-.577v.8h-.533v.524h.533v1.204c0 .611.236.976.912.976.248 0 .533-.077.714-.204l-.165-.491c-.17.099-.357.149-.505.149-.286 0-.379-.177-.379-.441v-1.192h.934v-.525zm-8.54 2.637v-1.655c0-.623-.395-1.043-1.033-1.048-.335-.006-.68.099-.923.469-.18-.292-.466-.47-.868-.47-.28 0-.554.084-.769.392v-.326h-.571v2.637h.576v-1.462c0-.457.253-.7.643-.7.38 0 .571.247.571.695v1.467h.577v-1.462c0-.458.264-.701.643-.701.39 0 .576.248.576.695v1.468l.578.001z" fill="#231F20"/><path d="M31.695 16.587V16.2h-.1l-.115.264-.116-.264h-.1v.386h.071v-.291l.108.25h.074l.108-.25v.29h.07zm-.634 0v-.32h.128v-.065h-.327v.065h.128v.32h.07z" fill="#F79410"/><path d="M20.33 18.24h-8.655V2.623h8.654V18.24z" fill="#FF5F00"/><path d="M12.224 10.432a9.93 9.93 0 013.777-7.808A9.821 9.821 0 009.89.5C4.428.5 0 4.947 0 10.432s4.428 9.932 9.89 9.932A9.82 9.82 0 0016 18.241a9.93 9.93 0 01-3.777-7.809z" fill="#EB001B"/><path d="M32.004 10.432c0 5.485-4.427 9.932-9.89 9.932a9.825 9.825 0 01-6.112-2.123 9.93 9.93 0 003.778-7.809 9.93 9.93 0 00-3.778-7.808A9.824 9.824 0 0122.115.5c5.462 0 9.889 4.447 9.889 9.932" fill="#F79E1B"/></g><defs><clipPath id="clip0_197_1284"><path fill="#fff" transform="translate(0 .5)" d="M0 0h32v25H0z"/></clipPath></defs></svg>