<svg width="32" height="32" fill="none" xmlns="http://www.w3.org/2000/svg"><path d="M29.333 16a4.469 4.469 0 00-1.356-3.21 4.464 4.464 0 00-.43-3.457 4.47 4.47 0 00-2.779-2.101 4.47 4.47 0 00-2.101-2.779 4.467 4.467 0 00-3.458-.43A4.467 4.467 0 0016 2.667a4.467 4.467 0 00-3.209 1.356 4.474 4.474 0 00-5.559 3.209 4.47 4.47 0 00-2.779 2.101 4.469 4.469 0 00-.43 3.457A4.469 4.469 0 002.667 16a4.47 4.47 0 001.356 3.21 4.468 4.468 0 00.43 3.456 4.47 4.47 0 002.779 2.102 4.474 4.474 0 005.559 3.21A4.47 4.47 0 0016 29.332a4.47 4.47 0 003.21-1.356 4.471 4.471 0 005.559-3.21 4.467 4.467 0 002.778-2.1 4.469 4.469 0 00.43-3.458A4.47 4.47 0 0029.333 16zM12 18a.667.667 0 01-1.221.37l-1.446-2.168V18A.667.667 0 018 18v-4a.667.667 0 011.221-.37l1.446 2.168V14A.667.667 0 0112 14v4zm4.333-2.667a.667.667 0 010 1.333h-1v.667h1.334a.667.667 0 010 1.334h-2A.667.667 0 0114 18v-4c0-.368.299-.667.667-.667h2a.667.667 0 010 1.333h-1.334v.667h1zm6.991 2.777a.665.665 0 01-1.212.26l-.779-1.168-.778 1.168a.666.666 0 01-1.212-.26l-.667-4a.667.667 0 111.315-.22l.39 2.338.398-.598c.247-.37.862-.37 1.109 0l.399.598.389-2.338a.666.666 0 111.315.22l-.667 4z" fill="#40C3FF"/></svg>