<svg width="32" height="32" fill="none" xmlns="http://www.w3.org/2000/svg"><path d="M5 4C3.346 4 2 5.346 2 7v16.667A4.338 4.338 0 006.333 28h19.334A4.338 4.338 0 0030 23.667V12.333c0-1.54-1.17-2.798-2.667-2.966V23a1 1 0 01-2 0V7c0-1.654-1.346-3-3-3H5zm2 6h13.333a1 1 0 110 2H7a1 1 0 110-2zm0 5.333h4.667a1 1 0 011 1V21a1 1 0 01-1 1H7a1 1 0 01-1-1v-4.667a1 1 0 011-1zm8.667 0h4.666a1 1 0 110 2h-4.666a1 1 0 110-2zm-7.667 2V20h2.667v-2.667H8zM15.667 20h4.666a1 1 0 110 2h-4.666a1 1 0 110-2z" fill="#303944"/></svg>