<svg width="20" height="20" fill="none" xmlns="http://www.w3.org/2000/svg"><path d="M18.171 8.367H17.5v-.034H10v3.333h4.71A4.998 4.998 0 015 9.999a5 5 0 015-5 4.97 4.97 0 013.317 1.267l2.357-2.357A8.295 8.295 0 0010 1.666a8.334 8.334 0 108.171 6.701z" fill="#FBC02D"/><path d="M2.627 6.12l2.738 2.01A4.998 4.998 0 0110 4.999a4.97 4.97 0 013.317 1.267l2.357-2.357A8.295 8.295 0 0010 1.666a8.329 8.329 0 00-7.373 4.455z" fill="#E53935"/><path d="M10 18.334a8.294 8.294 0 005.587-2.164l-2.58-2.182A4.963 4.963 0 0110 15a4.998 4.998 0 01-4.701-3.31L2.58 13.783a8.327 8.327 0 007.42 4.55z" fill="#4CAF50"/><path d="M18.171 8.369l-.006-.035H10v3.333h4.71a5.017 5.017 0 01-1.703 2.322v-.001l2.58 2.182c-.182.166 2.746-2.003 2.746-6.17 0-.558-.057-1.104-.162-1.631z" fill="#1565C0"/></svg>