<svg width="17" height="16" fill="none" xmlns="http://www.w3.org/2000/svg"><g clip-path="url(#clip0_440_5588)"><path d="M16.5 8a8 8 0 10-9.25 7.902v-5.59H5.219V8H7.25V6.237c0-2.005 1.194-3.112 3.022-3.112.875 0 1.79.156 1.79.156V5.25h-1.008c-.994 0-1.304.616-1.304 1.249v1.5h2.219l-.355 2.313H9.75v5.59A8.002 8.002 0 0016.5 8z" fill="#fff"/><path d="M11.614 10.313L11.97 8H9.75V6.5c0-.633.31-1.25 1.304-1.25h1.008V3.281s-.915-.156-1.79-.156c-1.828 0-3.022 1.107-3.022 3.112V8H5.219v2.313H7.25v5.59a8.06 8.06 0 002.5 0v-5.59h1.864z" fill="#1877F2"/></g><defs><clipPath id="clip0_440_5588"><path fill="#fff" transform="translate(.5)" d="M0 0h16v16H0z"/></clipPath></defs></svg>