<svg width="17" height="16" fill="none" xmlns="http://www.w3.org/2000/svg"><g clip-path="url(#clip0_440_5617)" fill="#fff"><path d="M12.863 8.5c-.018-2.022 1.652-2.994 1.728-3.041-.94-1.375-2.403-1.564-2.925-1.586-1.245-.126-2.43.733-3.06.733-.631 0-1.606-.715-2.638-.695-1.358.02-2.609.79-3.308 2.004-1.41 2.446-.36 6.07 1.013 8.055.672.97 1.472 2.063 2.524 2.023 1.013-.04 1.396-.655 2.62-.655 1.223 0 1.567.655 2.638.636 1.09-.021 1.78-.992 2.447-1.965.77-1.126 1.089-2.216 1.107-2.274-.024-.01-2.124-.815-2.146-3.234zM10.85 2.559c.559-.676.936-1.616.832-2.553-.804.032-1.778.536-2.355 1.212-.517.597-.97 1.555-.847 2.473.896.07 1.812-.457 2.37-1.132z"/></g><defs><clipPath id="clip0_440_5617"><path fill="#fff" transform="translate(1.988)" d="M0 0h13.024v16H0z"/></clipPath></defs></svg>