<svg width="33" height="32" fill="none" xmlns="http://www.w3.org/2000/svg"><path d="M24.066 18.734a1.297 1.297 0 00-.376 1.144l1.048 5.8c.088.491-.119.989-.53 1.273-.404.295-.94.33-1.38.094l-5.221-2.723a1.332 1.332 0 00-.59-.154h-.319a.958.958 0 00-.318.106l-5.222 2.736c-.259.13-.551.176-.838.13a1.31 1.31 0 01-1.049-1.499l1.05-5.8a1.32 1.32 0 00-.377-1.154l-4.256-4.126a1.273 1.273 0 01-.318-1.332 1.324 1.324 0 011.048-.884l5.86-.85a1.31 1.31 0 001.037-.718l2.582-5.293c.06-.118.14-.227.235-.319l.106-.082a.79.79 0 01.19-.153l.129-.047.2-.083h.496c.444.046.834.311 1.038.707l2.616 5.27c.188.385.555.653.978.718l5.86.85c.494.07.908.412 1.072.884a1.28 1.28 0 01-.342 1.332l-4.409 4.173z" fill="#FED200"/></svg>