<svg width="96" height="30" viewBox="0 0 96 30" fill="none" xmlns="http://www.w3.org/2000/svg">
<path d="M38.4415 0.71875L33.5625 29.3434H41.3656L46.2486 0.71875H38.4415Z" fill="#303944"/>
<path d="M27.017 0.751137L19.3744 20.2723L18.5596 17.3248C17.0524 13.7733 12.7735 8.67278 7.75 5.45838L14.7383 29.3297L22.995 29.3156L35.2838 0.745117L27.017 0.751137Z" fill="#303944"/>
<path d="M15.5983 2.79916C15.1447 1.05552 13.8301 0.535834 12.1984 0.473633H0.100349L0 1.04348C9.41475 3.32687 15.6444 8.82868 18.2294 15.4441L15.5983 2.79916Z" fill="#303944"/>
<path d="M62.0621 6.2069C64.615 6.16677 66.4654 6.72457 67.9024 7.30244L68.6068 7.63352L69.6625 1.42943C68.1171 0.849551 65.6947 0.227539 62.6722 0.227539C54.9614 0.227539 49.5265 4.11011 49.4843 9.67412C49.4342 13.7854 53.3558 16.0809 56.3181 17.4513C59.3587 18.8559 60.3782 19.7487 60.3642 21.0028C60.3401 22.919 57.9397 23.7979 55.6979 23.7979C52.5731 23.7979 50.9133 23.3665 48.3504 22.299L47.3449 21.8415L46.2471 28.2483C48.0734 29.0489 51.4431 29.7371 54.9413 29.7732C63.1438 29.7732 68.4744 25.9368 68.5306 19.9915C68.5647 16.739 66.4835 14.257 61.9738 12.2204C59.2443 10.8921 57.5745 10.0092 57.5905 8.66887C57.5905 7.47902 59.0075 6.2069 62.0621 6.2069Z" fill="#303944"/>
<path d="M89.6859 0.751953H83.6569C81.7844 0.751953 80.3916 1.2616 79.5687 3.12765L67.9824 29.3606H76.1769C76.1769 29.3606 77.5136 25.8332 77.8166 25.0607C78.7137 25.0607 86.6754 25.0727 87.8094 25.0727C88.0422 26.0719 88.7607 29.3606 88.7607 29.3606H95.9999L89.6859 0.751953ZM80.0624 19.2017C80.7047 17.5584 83.1712 11.2018 83.1712 11.2018C83.1291 11.28 83.8075 9.54643 84.2109 8.46894L84.7367 10.9369C84.7367 10.9369 86.2319 17.7711 86.545 19.2017H80.0624Z" fill="#303944"/>
</svg>
